<svg width="321" height="229" viewBox="0 0 321 229" fill="none" xmlns="http://www.w3.org/2000/svg">
<path d="M13.3 8.21H14.935C15.445 8.21 15.85 8.075 16.15 7.805C16.45 7.525 16.6 7.155 16.6 6.695C16.6 6.225 16.45 5.855 16.15 5.585C15.86 5.305 15.455 5.165 14.935 5.165H13.3V8.21ZM15.19 9.995H13.285V14H11.215V3.365H15.19C16.23 3.365 17.07 3.675 17.71 4.295C18.36 4.915 18.685 5.71 18.685 6.68C18.685 7.65 18.36 8.445 17.71 9.065C17.07 9.685 16.23 9.995 15.19 9.995ZM19.373 11.99C19.373 11.36 19.578 10.855 19.988 10.475C20.398 10.095 20.928 9.855 21.578 9.755L23.393 9.485C23.763 9.435 23.948 9.26 23.948 8.96C23.948 8.68 23.838 8.45 23.618 8.27C23.408 8.09 23.103 8 22.703 8C22.283 8 21.948 8.115 21.698 8.345C21.458 8.575 21.323 8.86 21.293 9.2L19.523 8.825C19.593 8.185 19.908 7.62 20.468 7.13C21.028 6.64 21.768 6.395 22.688 6.395C23.788 6.395 24.598 6.66 25.118 7.19C25.638 7.71 25.898 8.38 25.898 9.2V12.83C25.898 13.27 25.928 13.66 25.988 14H24.158C24.108 13.78 24.083 13.485 24.083 13.115C23.613 13.845 22.888 14.21 21.908 14.21C21.148 14.21 20.533 13.99 20.063 13.55C19.603 13.11 19.373 12.59 19.373 11.99ZM22.328 12.725C22.798 12.725 23.183 12.595 23.483 12.335C23.793 12.065 23.948 11.625 23.948 11.015V10.685L22.283 10.94C21.673 11.03 21.368 11.34 21.368 11.87C21.368 12.11 21.453 12.315 21.623 12.485C21.793 12.645 22.028 12.725 22.328 12.725ZM30.25 4.415V6.62H31.735V8.39H30.25V11.48C30.25 11.79 30.32 12.01 30.46 12.14C30.6 12.27 30.82 12.335 31.12 12.335C31.39 12.335 31.595 12.315 31.735 12.275V13.925C31.445 14.045 31.07 14.105 30.61 14.105C29.89 14.105 29.32 13.905 28.9 13.505C28.48 13.095 28.27 12.535 28.27 11.825V8.39H26.935V6.62H27.31C27.68 6.62 27.96 6.515 28.15 6.305C28.35 6.085 28.45 5.8 28.45 5.45V4.415H30.25ZM34.9834 9.665V14H32.9884V3.14H34.9834V7.235C35.4334 6.695 36.0984 6.425 36.9784 6.425C37.8784 6.425 38.5584 6.7 39.0184 7.25C39.4884 7.79 39.7234 8.49 39.7234 9.35V14H37.7284V9.695C37.7284 9.255 37.6134 8.9 37.3834 8.63C37.1634 8.36 36.8234 8.225 36.3634 8.225C35.9534 8.225 35.6234 8.36 35.3734 8.63C35.1334 8.9 35.0034 9.245 34.9834 9.665ZM45.8143 6.62H47.9143L49.5043 11.375L50.8693 6.62H52.8493L50.5393 14H48.5443L46.8193 8.96L45.1243 14H43.0993L40.7443 6.62H42.8443L44.2093 11.36L45.8143 6.62ZM53.5408 11.99C53.5408 11.36 53.7458 10.855 54.1558 10.475C54.5658 10.095 55.0958 9.855 55.7458 9.755L57.5608 9.485C57.9308 9.435 58.1158 9.26 58.1158 8.96C58.1158 8.68 58.0058 8.45 57.7858 8.27C57.5758 8.09 57.2708 8 56.8708 8C56.4508 8 56.1158 8.115 55.8658 8.345C55.6258 8.575 55.4908 8.86 55.4608 9.2L53.6908 8.825C53.7608 8.185 54.0758 7.62 54.6358 7.13C55.1958 6.64 55.9358 6.395 56.8558 6.395C57.9558 6.395 58.7658 6.66 59.2858 7.19C59.8058 7.71 60.0658 8.38 60.0658 9.2V12.83C60.0658 13.27 60.0958 13.66 60.1558 14H58.3258C58.2758 13.78 58.2508 13.485 58.2508 13.115C57.7808 13.845 57.0558 14.21 56.0758 14.21C55.3158 14.21 54.7008 13.99 54.2308 13.55C53.7708 13.11 53.5408 12.59 53.5408 11.99ZM56.4958 12.725C56.9658 12.725 57.3508 12.595 57.6508 12.335C57.9608 12.065 58.1158 11.625 58.1158 11.015V10.685L56.4508 10.94C55.8408 11.03 55.5358 11.34 55.5358 11.87C55.5358 12.11 55.6208 12.315 55.7908 12.485C55.9608 12.645 56.1958 12.725 56.4958 12.725ZM64.3613 16.91H62.2463L63.9863 13.07L60.8513 6.62H63.0863L65.0513 10.94L66.8663 6.62H68.9963L64.3613 16.91ZM76.2209 4.415V6.62H77.7059V8.39H76.2209V11.48C76.2209 11.79 76.2909 12.01 76.4309 12.14C76.5709 12.27 76.7909 12.335 77.0909 12.335C77.3609 12.335 77.5659 12.315 77.7059 12.275V13.925C77.4159 14.045 77.0409 14.105 76.5809 14.105C75.8609 14.105 75.2909 13.905 74.8709 13.505C74.4509 13.095 74.2409 12.535 74.2409 11.825V8.39H72.9059V6.62H73.2809C73.6509 6.62 73.9309 6.515 74.1209 6.305C74.3209 6.085 74.4209 5.8 74.4209 5.45V4.415H76.2209ZM81.2323 11.855C81.6023 12.225 82.0473 12.41 82.5673 12.41C83.0873 12.41 83.5273 12.225 83.8873 11.855C84.2573 11.485 84.4423 10.97 84.4423 10.31C84.4423 9.65 84.2573 9.135 83.8873 8.765C83.5273 8.395 83.0873 8.21 82.5673 8.21C82.0473 8.21 81.6023 8.395 81.2323 8.765C80.8723 9.135 80.6923 9.65 80.6923 10.31C80.6923 10.97 80.8723 11.485 81.2323 11.855ZM79.7923 7.505C80.5323 6.765 81.4573 6.395 82.5673 6.395C83.6773 6.395 84.5973 6.765 85.3273 7.505C86.0673 8.245 86.4373 9.18 86.4373 10.31C86.4373 11.44 86.0673 12.375 85.3273 13.115C84.5973 13.855 83.6773 14.225 82.5673 14.225C81.4573 14.225 80.5323 13.855 79.7923 13.115C79.0623 12.375 78.6973 11.44 78.6973 10.31C78.6973 9.18 79.0623 8.245 79.7923 7.505ZM94.1181 16.91H92.0031L93.7431 13.07L90.6081 6.62H92.8431L94.8081 10.94L96.6231 6.62H98.7531L94.1181 16.91ZM101.515 11.855C101.885 12.225 102.33 12.41 102.85 12.41C103.37 12.41 103.81 12.225 104.17 11.855C104.54 11.485 104.725 10.97 104.725 10.31C104.725 9.65 104.54 9.135 104.17 8.765C103.81 8.395 103.37 8.21 102.85 8.21C102.33 8.21 101.885 8.395 101.515 8.765C101.155 9.135 100.975 9.65 100.975 10.31C100.975 10.97 101.155 11.485 101.515 11.855ZM100.075 7.505C100.815 6.765 101.74 6.395 102.85 6.395C103.96 6.395 104.88 6.765 105.61 7.505C106.35 8.245 106.72 9.18 106.72 10.31C106.72 11.44 106.35 12.375 105.61 13.115C104.88 13.855 103.96 14.225 102.85 14.225C101.74 14.225 100.815 13.855 100.075 13.115C99.3451 12.375 98.9801 11.44 98.9801 10.31C98.9801 9.18 99.3451 8.245 100.075 7.505ZM113.021 14C112.981 13.8 112.961 13.535 112.961 13.205C112.771 13.535 112.486 13.785 112.106 13.955C111.736 14.115 111.341 14.195 110.921 14.195C110.051 14.195 109.366 13.92 108.866 13.37C108.366 12.81 108.116 12.115 108.116 11.285V6.62H110.111V10.88C110.111 11.32 110.226 11.68 110.456 11.96C110.686 12.23 111.021 12.365 111.461 12.365C111.891 12.365 112.231 12.235 112.481 11.975C112.731 11.705 112.856 11.35 112.856 10.91V6.62H114.851V12.665C114.851 13.135 114.876 13.58 114.926 14H113.021ZM121.405 6.59V8.6C121.205 8.56 121.005 8.54 120.805 8.54C120.235 8.54 119.775 8.705 119.425 9.035C119.075 9.355 118.9 9.885 118.9 10.625V14H116.905V6.62H118.84V7.715C119.2 6.945 119.9 6.56 120.94 6.56C121.05 6.56 121.205 6.57 121.405 6.59ZM125.69 11.945L127.4 11.57C127.42 11.89 127.545 12.16 127.775 12.38C128.015 12.59 128.34 12.695 128.75 12.695C129.06 12.695 129.3 12.625 129.47 12.485C129.64 12.345 129.725 12.17 129.725 11.96C129.725 11.59 129.46 11.35 128.93 11.24L127.955 11.015C127.265 10.865 126.745 10.595 126.395 10.205C126.055 9.815 125.885 9.35 125.885 8.81C125.885 8.14 126.145 7.57 126.665 7.1C127.195 6.63 127.855 6.395 128.645 6.395C129.145 6.395 129.585 6.47 129.965 6.62C130.345 6.76 130.64 6.945 130.85 7.175C131.06 7.395 131.22 7.62 131.33 7.85C131.44 8.08 131.51 8.305 131.54 8.525L129.875 8.9C129.835 8.64 129.715 8.41 129.515 8.21C129.325 8.01 129.04 7.91 128.66 7.91C128.4 7.91 128.175 7.98 127.985 8.12C127.805 8.26 127.715 8.435 127.715 8.645C127.715 9.005 127.94 9.225 128.39 9.305L129.44 9.53C130.15 9.68 130.69 9.955 131.06 10.355C131.44 10.755 131.63 11.235 131.63 11.795C131.63 12.455 131.38 13.025 130.88 13.505C130.38 13.985 129.675 14.225 128.765 14.225C128.245 14.225 127.78 14.15 127.37 14C126.96 13.84 126.64 13.64 126.41 13.4C126.19 13.15 126.02 12.905 125.9 12.665C125.79 12.415 125.72 12.175 125.69 11.945ZM136.445 8.24C135.915 8.24 135.47 8.425 135.11 8.795C134.75 9.165 134.57 9.67 134.57 10.31C134.57 10.95 134.75 11.46 135.11 11.84C135.48 12.21 135.93 12.395 136.46 12.395C136.93 12.395 137.305 12.275 137.585 12.035C137.865 11.785 138.055 11.49 138.155 11.15L139.91 11.735C139.73 12.415 139.34 13 138.74 13.49C138.14 13.98 137.38 14.225 136.46 14.225C135.36 14.225 134.435 13.855 133.685 13.115C132.945 12.365 132.575 11.43 132.575 10.31C132.575 9.18 132.94 8.245 133.67 7.505C134.41 6.765 135.32 6.395 136.4 6.395C137.34 6.395 138.11 6.64 138.71 7.13C139.31 7.61 139.695 8.195 139.865 8.885L138.08 9.485C137.84 8.655 137.295 8.24 136.445 8.24ZM143.209 11.855C143.579 12.225 144.024 12.41 144.544 12.41C145.064 12.41 145.504 12.225 145.864 11.855C146.234 11.485 146.419 10.97 146.419 10.31C146.419 9.65 146.234 9.135 145.864 8.765C145.504 8.395 145.064 8.21 144.544 8.21C144.024 8.21 143.579 8.395 143.209 8.765C142.849 9.135 142.669 9.65 142.669 10.31C142.669 10.97 142.849 11.485 143.209 11.855ZM141.769 7.505C142.509 6.765 143.434 6.395 144.544 6.395C145.654 6.395 146.574 6.765 147.304 7.505C148.044 8.245 148.414 9.18 148.414 10.31C148.414 11.44 148.044 12.375 147.304 13.115C146.574 13.855 145.654 14.225 144.544 14.225C143.434 14.225 142.509 13.855 141.769 13.115C141.039 12.375 140.674 11.44 140.674 10.31C140.674 9.18 141.039 8.245 141.769 7.505ZM154.413 6.59V8.6C154.213 8.56 154.013 8.54 153.813 8.54C153.243 8.54 152.783 8.705 152.433 9.035C152.083 9.355 151.908 9.885 151.908 10.625V14H149.913V6.62H151.848V7.715C152.208 6.945 152.908 6.56 153.948 6.56C154.058 6.56 154.213 6.57 154.413 6.59ZM157.124 9.47H160.424C160.404 9.06 160.254 8.715 159.974 8.435C159.704 8.155 159.304 8.015 158.774 8.015C158.294 8.015 157.904 8.165 157.604 8.465C157.304 8.765 157.144 9.1 157.124 9.47ZM160.619 11.39L162.284 11.885C162.084 12.565 161.689 13.125 161.099 13.565C160.519 14.005 159.794 14.225 158.924 14.225C157.864 14.225 156.964 13.87 156.224 13.16C155.484 12.44 155.114 11.48 155.114 10.28C155.114 9.14 155.474 8.21 156.194 7.49C156.914 6.76 157.764 6.395 158.744 6.395C159.884 6.395 160.774 6.735 161.414 7.415C162.064 8.095 162.389 9.03 162.389 10.22C162.389 10.3 162.384 10.39 162.374 10.49C162.374 10.59 162.374 10.67 162.374 10.73L162.359 10.835H157.079C157.099 11.315 157.289 11.715 157.649 12.035C158.009 12.355 158.439 12.515 158.939 12.515C159.789 12.515 160.349 12.14 160.619 11.39Z" fill="#050A41"/>
<rect x="10.3142" y="27.3142" width="83.3715" height="21.3715" rx="10.6858" fill="white"/>
<circle cx="19" cy="38" r="3" fill="#15A2FA"/>
<path d="M33.88 39.816L35.104 35.328H35.912L34.296 41H33.488L32.008 36.4L30.544 41H29.76L28.12 35.328H28.928L30.176 39.768L31.6 35.328H32.424L33.88 39.816ZM37.3753 41H36.6313V37.152H37.3753V41ZM36.6153 36.08C36.5139 35.9733 36.4633 35.8453 36.4633 35.696C36.4633 35.5467 36.5139 35.4187 36.6153 35.312C36.7219 35.2053 36.8499 35.152 36.9993 35.152C37.1486 35.152 37.2766 35.2053 37.3833 35.312C37.4899 35.4133 37.5433 35.5413 37.5433 35.696C37.5433 35.8453 37.4899 35.9733 37.3833 36.08C37.2766 36.1813 37.1486 36.232 36.9993 36.232C36.8499 36.232 36.7219 36.1813 36.6153 36.08ZM39.6227 35.936V37.152H40.4547V37.832H39.6227V39.832C39.6227 40.0133 39.6627 40.1467 39.7427 40.232C39.828 40.3173 39.9667 40.36 40.1587 40.36C40.2707 40.36 40.3694 40.3493 40.4547 40.328V40.968C40.3267 41.016 40.156 41.04 39.9427 41.04C39.612 41.04 39.3507 40.944 39.1587 40.752C38.9667 40.56 38.8707 40.2907 38.8707 39.944V37.832H38.1347V37.152H38.3427C38.54 37.152 38.6867 37.0987 38.7827 36.992C38.884 36.88 38.9347 36.736 38.9347 36.56V35.936H39.6227ZM42.1704 38.736V41H41.4184V35.208H42.1704V37.6C42.4264 37.2267 42.8158 37.04 43.3384 37.04C43.7811 37.04 44.1198 37.1813 44.3544 37.464C44.5944 37.7467 44.7144 38.112 44.7144 38.56V41H43.9624V38.688C43.9624 38.0427 43.6638 37.72 43.0664 37.72C42.7891 37.72 42.5731 37.816 42.4184 38.008C42.2638 38.1947 42.1811 38.4373 42.1704 38.736ZM50.3666 41.12C49.5933 41.12 48.9293 40.8533 48.3746 40.32C47.8253 39.7867 47.5506 39.0667 47.5506 38.16C47.5506 37.552 47.6893 37.0187 47.9666 36.56C48.244 36.1013 48.5933 35.7627 49.0146 35.544C49.436 35.32 49.8866 35.208 50.3666 35.208C51.0066 35.208 51.5453 35.3707 51.9826 35.696C52.4253 36.016 52.7186 36.4533 52.8626 37.008L52.1346 37.264C52.028 36.8373 51.8226 36.5093 51.5186 36.28C51.2146 36.0453 50.8306 35.928 50.3666 35.928C49.812 35.928 49.3373 36.1253 48.9426 36.52C48.548 36.9093 48.3506 37.456 48.3506 38.16C48.3506 38.864 48.548 39.4133 48.9426 39.808C49.3373 40.2027 49.812 40.4 50.3666 40.4C50.8306 40.4 51.2173 40.2773 51.5266 40.032C51.836 39.7813 52.052 39.4507 52.1746 39.04L52.8706 39.296C52.716 39.8453 52.4173 40.288 51.9746 40.624C51.5373 40.9547 51.0013 41.12 50.3666 41.12ZM53.3944 39.968C53.3944 39.6373 53.501 39.3733 53.7144 39.176C53.9277 38.9733 54.2104 38.848 54.5624 38.8L55.6024 38.648C55.7997 38.6213 55.8984 38.5253 55.8984 38.36C55.8984 38.1573 55.829 37.992 55.6904 37.864C55.5517 37.736 55.3437 37.672 55.0664 37.672C54.8104 37.672 54.6077 37.744 54.4584 37.888C54.309 38.0267 54.221 38.2133 54.1944 38.448L53.4744 38.28C53.5117 37.912 53.6797 37.6133 53.9784 37.384C54.277 37.1493 54.6344 37.032 55.0504 37.032C55.5944 37.032 55.997 37.1653 56.2584 37.432C56.5197 37.6933 56.6504 38.0293 56.6504 38.44V40.368C56.6504 40.5973 56.6664 40.808 56.6984 41H55.9624C55.9357 40.84 55.9224 40.6667 55.9224 40.48C55.8157 40.6507 55.6584 40.8 55.4504 40.928C55.2477 41.056 54.9917 41.12 54.6824 41.12C54.3037 41.12 53.9944 41.008 53.7544 40.784C53.5144 40.5547 53.3944 40.2827 53.3944 39.968ZM54.7864 40.488C55.1224 40.488 55.3917 40.3973 55.5944 40.216C55.797 40.0347 55.8984 39.7467 55.8984 39.352V39.176L54.7224 39.352C54.5517 39.3787 54.4157 39.44 54.3144 39.536C54.213 39.632 54.1624 39.7627 54.1624 39.928C54.1624 40.0773 54.2184 40.208 54.3304 40.32C54.4477 40.432 54.5997 40.488 54.7864 40.488ZM58.5259 41H57.7819V37.152H58.5019V37.664C58.6192 37.4613 58.7845 37.3067 58.9979 37.2C59.2112 37.0933 59.4352 37.04 59.6699 37.04C59.9205 37.04 60.1499 37.1013 60.3579 37.224C60.5659 37.3467 60.7205 37.528 60.8219 37.768C61.0885 37.2827 61.5179 37.04 62.1099 37.04C62.4779 37.04 62.7899 37.1653 63.0459 37.416C63.3072 37.6667 63.4379 38.0293 63.4379 38.504V41H62.6939V38.584C62.6939 38.3173 62.6245 38.104 62.4859 37.944C62.3525 37.784 62.1499 37.704 61.8779 37.704C61.6165 37.704 61.4032 37.7973 61.2379 37.984C61.0725 38.1653 60.9899 38.3947 60.9899 38.672V41H60.2379V38.584C60.2379 38.3173 60.1685 38.104 60.0299 37.944C59.8965 37.784 59.6939 37.704 59.4219 37.704C59.1552 37.704 58.9392 37.7947 58.7739 37.976C58.6085 38.1573 58.5259 38.392 58.5259 38.68V41ZM65.3453 41H64.6013V35.208H65.3453V37.696C65.4466 37.5093 65.6066 37.3547 65.8253 37.232C66.0493 37.104 66.3133 37.04 66.6173 37.04C67.1773 37.04 67.6119 37.2293 67.9213 37.608C68.2306 37.9867 68.3853 38.4693 68.3853 39.056C68.3853 39.648 68.2253 40.1387 67.9053 40.528C67.5853 40.912 67.1479 41.104 66.5933 41.104C66.0173 41.104 65.6013 40.8827 65.3453 40.44V41ZM67.3053 40.056C67.5133 39.8053 67.6173 39.472 67.6173 39.056C67.6173 38.64 67.5133 38.312 67.3053 38.072C67.1026 37.8267 66.8279 37.704 66.4813 37.704C66.1453 37.704 65.8706 37.8267 65.6573 38.072C65.4439 38.3173 65.3373 38.6453 65.3373 39.056C65.3373 39.4667 65.4439 39.8 65.6573 40.056C65.8706 40.3067 66.1453 40.432 66.4813 40.432C66.8226 40.432 67.0973 40.3067 67.3053 40.056ZM71.4394 37.112V37.912C71.3274 37.896 71.2181 37.888 71.1114 37.888C70.4074 37.888 70.0554 38.2827 70.0554 39.072V41H69.3034V37.152H70.0394V37.824C70.2741 37.3333 70.6581 37.088 71.1914 37.088C71.2768 37.088 71.3594 37.096 71.4394 37.112ZM72.9449 41H72.2009V37.152H72.9449V41ZM72.1849 36.08C72.0836 35.9733 72.0329 35.8453 72.0329 35.696C72.0329 35.5467 72.0836 35.4187 72.1849 35.312C72.2916 35.2053 72.4196 35.152 72.5689 35.152C72.7183 35.152 72.8463 35.2053 72.9529 35.312C73.0596 35.4133 73.1129 35.5413 73.1129 35.696C73.1129 35.8453 73.0596 35.9733 72.9529 36.08C72.8463 36.1813 72.7183 36.232 72.5689 36.232C72.4196 36.232 72.2916 36.1813 72.1849 36.08ZM74.6324 39.064C74.6324 39.4693 74.731 39.8 74.9284 40.056C75.131 40.312 75.4084 40.44 75.7604 40.44C76.0964 40.44 76.3657 40.3093 76.5684 40.048C76.771 39.7867 76.8724 39.4533 76.8724 39.048C76.8724 38.648 76.7737 38.3253 76.5764 38.08C76.379 37.8347 76.1097 37.712 75.7684 37.712C75.427 37.712 75.1524 37.8373 74.9444 38.088C74.7364 38.3387 74.6324 38.664 74.6324 39.064ZM76.8804 40.48V40.416C76.779 40.6133 76.6244 40.7787 76.4164 40.912C76.2137 41.04 75.971 41.104 75.6884 41.104C75.139 41.104 74.6964 40.912 74.3604 40.528C74.0297 40.1387 73.8644 39.6507 73.8644 39.064C73.8644 38.504 74.035 38.0293 74.3764 37.64C74.7177 37.2453 75.155 37.048 75.6884 37.048C76.003 37.048 76.259 37.112 76.4564 37.24C76.6537 37.3627 76.7897 37.5147 76.8644 37.696V35.208H77.6084V40.288C77.6084 40.5493 77.6217 40.7867 77.6484 41H76.9204C76.8937 40.8507 76.8804 40.6773 76.8804 40.48ZM78.5675 41.208L79.2955 41.04C79.3222 41.312 79.4315 41.536 79.6235 41.712C79.8155 41.8933 80.0555 41.984 80.3435 41.984C81.1275 41.984 81.5195 41.568 81.5195 40.736V40.184C81.4235 40.3707 81.2715 40.5227 81.0635 40.64C80.8608 40.7573 80.6208 40.816 80.3435 40.816C79.8315 40.816 79.4075 40.6427 79.0715 40.296C78.7408 39.944 78.5755 39.496 78.5755 38.952C78.5755 38.424 78.7408 37.9813 79.0715 37.624C79.4022 37.2613 79.8262 37.08 80.3435 37.08C80.9302 37.08 81.3248 37.2827 81.5275 37.688V37.152H82.2715V40.712C82.2715 40.968 82.2368 41.2053 82.1675 41.424C82.1035 41.648 81.9995 41.8533 81.8555 42.04C81.7115 42.2267 81.5088 42.3733 81.2475 42.48C80.9915 42.5867 80.6902 42.64 80.3435 42.64C79.8688 42.64 79.4662 42.504 79.1355 42.232C78.8048 41.9653 78.6155 41.624 78.5675 41.208ZM80.4555 40.184C80.7808 40.184 81.0448 40.072 81.2475 39.848C81.4502 39.6187 81.5515 39.32 81.5515 38.952C81.5515 38.584 81.4502 38.288 81.2475 38.064C81.0448 37.8347 80.7808 37.72 80.4555 37.72C80.1248 37.72 79.8555 37.832 79.6475 38.056C79.4448 38.28 79.3435 38.5787 79.3435 38.952C79.3435 39.3307 79.4422 39.632 79.6395 39.856C79.8422 40.0747 80.1142 40.184 80.4555 40.184ZM83.9205 38.68H86.0245C86.0138 38.392 85.9178 38.1573 85.7365 37.976C85.5552 37.7893 85.2992 37.696 84.9685 37.696C84.6698 37.696 84.4245 37.7947 84.2325 37.992C84.0405 38.184 83.9365 38.4133 83.9205 38.68ZM86.1365 39.68L86.7845 39.904C86.6725 40.2613 86.4645 40.5547 86.1605 40.784C85.8565 41.008 85.4885 41.12 85.0565 41.12C84.5178 41.12 84.0592 40.936 83.6805 40.568C83.3072 40.1947 83.1205 39.6933 83.1205 39.064C83.1205 38.4773 83.3018 37.992 83.6645 37.608C84.0272 37.224 84.4592 37.032 84.9605 37.032C85.5418 37.032 85.9952 37.216 86.3205 37.584C86.6458 37.9467 86.8085 38.4347 86.8085 39.048C86.8085 39.144 86.8032 39.224 86.7925 39.288H83.8965C83.9018 39.6293 84.0138 39.9093 84.2325 40.128C84.4565 40.3467 84.7312 40.456 85.0565 40.456C85.6058 40.456 85.9658 40.1973 86.1365 39.68Z" fill="#050A41"/>
<rect x="10.3142" y="27.3142" width="83.3715" height="21.3715" rx="10.6858" stroke="#E2E8F0" stroke-width="0.628476"/>
<rect x="102.314" y="27.3142" width="94.3715" height="21.3715" rx="10.6858" fill="white"/>
<circle cx="111" cy="38" r="3" fill="#E60C21"/>
<path d="M125.88 39.816L127.104 35.328H127.912L126.296 41H125.488L124.008 36.4L122.544 41H121.76L120.12 35.328H120.928L122.176 39.768L123.6 35.328H124.424L125.88 39.816ZM129.375 41H128.631V37.152H129.375V41ZM128.615 36.08C128.514 35.9733 128.463 35.8453 128.463 35.696C128.463 35.5467 128.514 35.4187 128.615 35.312C128.722 35.2053 128.85 35.152 128.999 35.152C129.149 35.152 129.277 35.2053 129.383 35.312C129.49 35.4133 129.543 35.5413 129.543 35.696C129.543 35.8453 129.49 35.9733 129.383 36.08C129.277 36.1813 129.149 36.232 128.999 36.232C128.85 36.232 128.722 36.1813 128.615 36.08ZM131.623 35.936V37.152H132.455V37.832H131.623V39.832C131.623 40.0133 131.663 40.1467 131.743 40.232C131.828 40.3173 131.967 40.36 132.159 40.36C132.271 40.36 132.369 40.3493 132.455 40.328V40.968C132.327 41.016 132.156 41.04 131.943 41.04C131.612 41.04 131.351 40.944 131.159 40.752C130.967 40.56 130.871 40.2907 130.871 39.944V37.832H130.135V37.152H130.343C130.54 37.152 130.687 37.0987 130.783 36.992C130.884 36.88 130.935 36.736 130.935 36.56V35.936H131.623ZM134.17 38.736V41H133.418V35.208H134.17V37.6C134.426 37.2267 134.816 37.04 135.338 37.04C135.781 37.04 136.12 37.1813 136.354 37.464C136.594 37.7467 136.714 38.112 136.714 38.56V41H135.962V38.688C135.962 38.0427 135.664 37.72 135.066 37.72C134.789 37.72 134.573 37.816 134.418 38.008C134.264 38.1947 134.181 38.4373 134.17 38.736ZM138.663 40.088C138.897 40.328 139.183 40.448 139.519 40.448C139.855 40.448 140.137 40.328 140.367 40.088C140.601 39.8427 140.719 39.504 140.719 39.072C140.719 38.6453 140.601 38.312 140.367 38.072C140.137 37.8267 139.855 37.704 139.519 37.704C139.183 37.704 138.897 37.8267 138.663 38.072C138.433 38.312 138.319 38.6453 138.319 39.072C138.319 39.504 138.433 39.8427 138.663 40.088ZM138.103 37.616C138.476 37.2267 138.948 37.032 139.519 37.032C140.089 37.032 140.559 37.2267 140.927 37.616C141.3 38 141.487 38.4853 141.487 39.072C141.487 39.664 141.303 40.1547 140.935 40.544C140.567 40.928 140.095 41.12 139.519 41.12C138.943 41.12 138.471 40.928 138.103 40.544C137.735 40.1547 137.551 39.664 137.551 39.072C137.551 38.4853 137.735 38 138.103 37.616ZM144.906 40.536C144.804 40.728 144.65 40.8747 144.442 40.976C144.234 41.072 144.01 41.12 143.77 41.12C143.332 41.12 142.983 40.976 142.722 40.688C142.46 40.3947 142.33 40.024 142.33 39.576V37.152H143.082V39.464C143.082 39.752 143.151 39.9893 143.29 40.176C143.434 40.3627 143.655 40.456 143.954 40.456C144.252 40.456 144.479 40.368 144.634 40.192C144.788 40.0107 144.866 39.7707 144.866 39.472V37.152H145.618V40.288C145.618 40.5387 145.631 40.776 145.658 41H144.938C144.916 40.8827 144.906 40.728 144.906 40.536ZM147.869 35.936V37.152H148.701V37.832H147.869V39.832C147.869 40.0133 147.909 40.1467 147.989 40.232C148.074 40.3173 148.213 40.36 148.405 40.36C148.517 40.36 148.616 40.3493 148.701 40.328V40.968C148.573 41.016 148.402 41.04 148.189 41.04C147.858 41.04 147.597 40.944 147.405 40.752C147.213 40.56 147.117 40.2907 147.117 39.944V37.832H146.381V37.152H146.589C146.786 37.152 146.933 37.0987 147.029 36.992C147.13 36.88 147.181 36.736 147.181 36.56V35.936H147.869ZM154.161 41.12C153.387 41.12 152.723 40.8533 152.169 40.32C151.619 39.7867 151.345 39.0667 151.345 38.16C151.345 37.552 151.483 37.0187 151.761 36.56C152.038 36.1013 152.387 35.7627 152.809 35.544C153.23 35.32 153.681 35.208 154.161 35.208C154.801 35.208 155.339 35.3707 155.777 35.696C156.219 36.016 156.513 36.4533 156.657 37.008L155.929 37.264C155.822 36.8373 155.617 36.5093 155.313 36.28C155.009 36.0453 154.625 35.928 154.161 35.928C153.606 35.928 153.131 36.1253 152.737 36.52C152.342 36.9093 152.145 37.456 152.145 38.16C152.145 38.864 152.342 39.4133 152.737 39.808C153.131 40.2027 153.606 40.4 154.161 40.4C154.625 40.4 155.011 40.2773 155.321 40.032C155.63 39.7813 155.846 39.4507 155.969 39.04L156.665 39.296C156.51 39.8453 156.211 40.288 155.769 40.624C155.331 40.9547 154.795 41.12 154.161 41.12ZM157.188 39.968C157.188 39.6373 157.295 39.3733 157.508 39.176C157.722 38.9733 158.004 38.848 158.356 38.8L159.396 38.648C159.594 38.6213 159.692 38.5253 159.692 38.36C159.692 38.1573 159.623 37.992 159.484 37.864C159.346 37.736 159.138 37.672 158.86 37.672C158.604 37.672 158.402 37.744 158.252 37.888C158.103 38.0267 158.015 38.2133 157.988 38.448L157.268 38.28C157.306 37.912 157.474 37.6133 157.772 37.384C158.071 37.1493 158.428 37.032 158.844 37.032C159.388 37.032 159.791 37.1653 160.052 37.432C160.314 37.6933 160.444 38.0293 160.444 38.44V40.368C160.444 40.5973 160.46 40.808 160.492 41H159.756C159.73 40.84 159.716 40.6667 159.716 40.48C159.61 40.6507 159.452 40.8 159.244 40.928C159.042 41.056 158.786 41.12 158.476 41.12C158.098 41.12 157.788 41.008 157.548 40.784C157.308 40.5547 157.188 40.2827 157.188 39.968ZM158.58 40.488C158.916 40.488 159.186 40.3973 159.388 40.216C159.591 40.0347 159.692 39.7467 159.692 39.352V39.176L158.516 39.352C158.346 39.3787 158.21 39.44 158.108 39.536C158.007 39.632 157.956 39.7627 157.956 39.928C157.956 40.0773 158.012 40.208 158.124 40.32C158.242 40.432 158.394 40.488 158.58 40.488ZM162.32 41H161.576V37.152H162.296V37.664C162.413 37.4613 162.579 37.3067 162.792 37.2C163.005 37.0933 163.229 37.04 163.464 37.04C163.715 37.04 163.944 37.1013 164.152 37.224C164.36 37.3467 164.515 37.528 164.616 37.768C164.883 37.2827 165.312 37.04 165.904 37.04C166.272 37.04 166.584 37.1653 166.84 37.416C167.101 37.6667 167.232 38.0293 167.232 38.504V41H166.488V38.584C166.488 38.3173 166.419 38.104 166.28 37.944C166.147 37.784 165.944 37.704 165.672 37.704C165.411 37.704 165.197 37.7973 165.032 37.984C164.867 38.1653 164.784 38.3947 164.784 38.672V41H164.032V38.584C164.032 38.3173 163.963 38.104 163.824 37.944C163.691 37.784 163.488 37.704 163.216 37.704C162.949 37.704 162.733 37.7947 162.568 37.976C162.403 38.1573 162.32 38.392 162.32 38.68V41ZM169.139 41H168.395V35.208H169.139V37.696C169.241 37.5093 169.401 37.3547 169.619 37.232C169.843 37.104 170.107 37.04 170.411 37.04C170.971 37.04 171.406 37.2293 171.715 37.608C172.025 37.9867 172.179 38.4693 172.179 39.056C172.179 39.648 172.019 40.1387 171.699 40.528C171.379 40.912 170.942 41.104 170.387 41.104C169.811 41.104 169.395 40.8827 169.139 40.44V41ZM171.099 40.056C171.307 39.8053 171.411 39.472 171.411 39.056C171.411 38.64 171.307 38.312 171.099 38.072C170.897 37.8267 170.622 37.704 170.275 37.704C169.939 37.704 169.665 37.8267 169.451 38.072C169.238 38.3173 169.131 38.6453 169.131 39.056C169.131 39.4667 169.238 39.8 169.451 40.056C169.665 40.3067 169.939 40.432 170.275 40.432C170.617 40.432 170.891 40.3067 171.099 40.056ZM175.234 37.112V37.912C175.122 37.896 175.012 37.888 174.906 37.888C174.202 37.888 173.85 38.2827 173.85 39.072V41H173.098V37.152H173.834V37.824C174.068 37.3333 174.452 37.088 174.986 37.088C175.071 37.088 175.154 37.096 175.234 37.112ZM176.739 41H175.995V37.152H176.739V41ZM175.979 36.08C175.878 35.9733 175.827 35.8453 175.827 35.696C175.827 35.5467 175.878 35.4187 175.979 35.312C176.086 35.2053 176.214 35.152 176.363 35.152C176.512 35.152 176.64 35.2053 176.747 35.312C176.854 35.4133 176.907 35.5413 176.907 35.696C176.907 35.8453 176.854 35.9733 176.747 36.08C176.64 36.1813 176.512 36.232 176.363 36.232C176.214 36.232 176.086 36.1813 175.979 36.08ZM178.426 39.064C178.426 39.4693 178.525 39.8 178.722 40.056C178.925 40.312 179.202 40.44 179.554 40.44C179.89 40.44 180.16 40.3093 180.362 40.048C180.565 39.7867 180.666 39.4533 180.666 39.048C180.666 38.648 180.568 38.3253 180.37 38.08C180.173 37.8347 179.904 37.712 179.562 37.712C179.221 37.712 178.946 37.8373 178.738 38.088C178.53 38.3387 178.426 38.664 178.426 39.064ZM180.674 40.48V40.416C180.573 40.6133 180.418 40.7787 180.21 40.912C180.008 41.04 179.765 41.104 179.482 41.104C178.933 41.104 178.49 40.912 178.154 40.528C177.824 40.1387 177.658 39.6507 177.658 39.064C177.658 38.504 177.829 38.0293 178.17 37.64C178.512 37.2453 178.949 37.048 179.482 37.048C179.797 37.048 180.053 37.112 180.25 37.24C180.448 37.3627 180.584 37.5147 180.658 37.696V35.208H181.402V40.288C181.402 40.5493 181.416 40.7867 181.442 41H180.714C180.688 40.8507 180.674 40.6773 180.674 40.48ZM182.362 41.208L183.09 41.04C183.116 41.312 183.226 41.536 183.418 41.712C183.61 41.8933 183.85 41.984 184.138 41.984C184.922 41.984 185.314 41.568 185.314 40.736V40.184C185.218 40.3707 185.066 40.5227 184.858 40.64C184.655 40.7573 184.415 40.816 184.138 40.816C183.626 40.816 183.202 40.6427 182.866 40.296C182.535 39.944 182.37 39.496 182.37 38.952C182.37 38.424 182.535 37.9813 182.866 37.624C183.196 37.2613 183.62 37.08 184.138 37.08C184.724 37.08 185.119 37.2827 185.322 37.688V37.152H186.066V40.712C186.066 40.968 186.031 41.2053 185.962 41.424C185.898 41.648 185.794 41.8533 185.65 42.04C185.506 42.2267 185.303 42.3733 185.042 42.48C184.786 42.5867 184.484 42.64 184.138 42.64C183.663 42.64 183.26 42.504 182.93 42.232C182.599 41.9653 182.41 41.624 182.362 41.208ZM184.25 40.184C184.575 40.184 184.839 40.072 185.042 39.848C185.244 39.6187 185.346 39.32 185.346 38.952C185.346 38.584 185.244 38.288 185.042 38.064C184.839 37.8347 184.575 37.72 184.25 37.72C183.919 37.72 183.65 37.832 183.442 38.056C183.239 38.28 183.138 38.5787 183.138 38.952C183.138 39.3307 183.236 39.632 183.434 39.856C183.636 40.0747 183.908 40.184 184.25 40.184ZM187.715 38.68H189.819C189.808 38.392 189.712 38.1573 189.531 37.976C189.349 37.7893 189.093 37.696 188.763 37.696C188.464 37.696 188.219 37.7947 188.027 37.992C187.835 38.184 187.731 38.4133 187.715 38.68ZM189.931 39.68L190.579 39.904C190.467 40.2613 190.259 40.5547 189.955 40.784C189.651 41.008 189.283 41.12 188.851 41.12C188.312 41.12 187.853 40.936 187.475 40.568C187.101 40.1947 186.915 39.6933 186.915 39.064C186.915 38.4773 187.096 37.992 187.459 37.608C187.821 37.224 188.253 37.032 188.755 37.032C189.336 37.032 189.789 37.216 190.115 37.584C190.44 37.9467 190.603 38.4347 190.603 39.048C190.603 39.144 190.597 39.224 190.587 39.288H187.691C187.696 39.6293 187.808 39.9093 188.027 40.128C188.251 40.3467 188.525 40.456 188.851 40.456C189.4 40.456 189.76 40.1973 189.931 39.68Z" fill="#050A41"/>
<rect x="102.314" y="27.3142" width="94.3715" height="21.3715" rx="10.6858" stroke="#E2E8F0" stroke-width="0.628476"/>
<line x1="67" y1="124.75" x2="318" y2="124.75" stroke="#D1D5E4" stroke-width="0.5" stroke-dasharray="10 10"/>
<line x1="67" y1="151.75" x2="318" y2="151.75" stroke="#D1D5E4" stroke-width="0.5" stroke-dasharray="10 10"/>
<line x1="67" y1="95.75" x2="318" y2="95.75" stroke="#D1D5E4" stroke-width="0.5" stroke-dasharray="10 10"/>
<line x1="67" y1="67.75" x2="318" y2="67.75" stroke="#D1D5E4" stroke-width="0.5" stroke-dasharray="10 10"/>
<path d="M68.752 224.648L68.312 223.936L69.744 222.656H67.384V221.816H70.984V222.616L69.576 223.848C69.992 223.859 70.3547 224.005 70.664 224.288C70.9733 224.571 71.128 224.949 71.128 225.424C71.128 225.893 70.952 226.293 70.6 226.624C70.248 226.955 69.776 227.12 69.184 227.12C68.608 227.12 68.1413 226.963 67.784 226.648C67.432 226.328 67.24 225.939 67.208 225.48L68.144 225.288C68.1547 225.587 68.256 225.829 68.448 226.016C68.6453 226.203 68.888 226.296 69.176 226.296C69.48 226.296 69.72 226.211 69.896 226.04C70.072 225.869 70.16 225.661 70.16 225.416C70.16 225.139 70.0667 224.928 69.88 224.784C69.6987 224.635 69.4853 224.56 69.24 224.56C69.032 224.56 68.8693 224.589 68.752 224.648ZM74.8306 227H73.9106V223.104H74.7986V223.6C74.9053 223.408 75.0653 223.259 75.2786 223.152C75.4973 223.045 75.7213 222.992 75.9506 222.992C76.212 222.992 76.4466 223.051 76.6546 223.168C76.8626 223.285 77.0173 223.456 77.1186 223.68C77.3906 223.221 77.812 222.992 78.3826 222.992C78.7666 222.992 79.092 223.117 79.3586 223.368C79.6253 223.619 79.7586 223.987 79.7586 224.472V227H78.8626V224.624C78.8626 224.384 78.7986 224.192 78.6706 224.048C78.548 223.899 78.3613 223.824 78.1106 223.824C77.8706 223.824 77.676 223.907 77.5266 224.072C77.3773 224.237 77.3026 224.443 77.3026 224.688V227H76.3906V224.624C76.3906 224.384 76.3266 224.192 76.1986 224.048C76.076 223.899 75.8893 223.824 75.6386 223.824C75.3933 223.824 75.196 223.907 75.0466 224.072C74.9026 224.232 74.8306 224.437 74.8306 224.688V227ZM81.791 225.96C82.0043 226.179 82.263 226.288 82.567 226.288C82.871 226.288 83.127 226.179 83.335 225.96C83.5483 225.741 83.655 225.437 83.655 225.048C83.655 224.664 83.5483 224.365 83.335 224.152C83.127 223.933 82.871 223.824 82.567 223.824C82.263 223.824 82.0043 223.933 81.791 224.152C81.583 224.365 81.479 224.664 81.479 225.048C81.479 225.432 81.583 225.736 81.791 225.96ZM82.567 222.984C83.1537 222.984 83.6363 223.179 84.015 223.568C84.399 223.957 84.591 224.451 84.591 225.048C84.591 225.645 84.399 226.141 84.015 226.536C83.6363 226.925 83.1537 227.12 82.567 227.12C81.9857 227.12 81.503 226.925 81.119 226.536C80.7403 226.141 80.551 225.645 80.551 225.048C80.551 224.451 80.7403 223.957 81.119 223.568C81.503 223.179 81.9857 222.984 82.567 222.984ZM86.3758 224.752V227H85.4478V223.104H86.3518V223.624C86.4745 223.411 86.6371 223.253 86.8398 223.152C87.0478 223.045 87.2691 222.992 87.5038 222.992C87.9625 222.992 88.3118 223.136 88.5518 223.424C88.7918 223.712 88.9118 224.083 88.9118 224.536V227H87.9838V224.696C87.9838 224.435 87.9198 224.227 87.7918 224.072C87.6638 223.912 87.4611 223.832 87.1838 223.832C86.9278 223.832 86.7278 223.92 86.5838 224.096C86.4451 224.267 86.3758 224.485 86.3758 224.752ZM91.1776 221.912V223.104H91.9856V223.928H91.1776V225.736C91.1776 225.907 91.2176 226.032 91.2976 226.112C91.3776 226.187 91.5029 226.224 91.6736 226.224C91.7802 226.224 91.8869 226.213 91.9936 226.192V226.96C91.8549 227.019 91.6656 227.048 91.4256 227.048C91.0629 227.048 90.7776 226.947 90.5696 226.744C90.3616 226.536 90.2576 226.251 90.2576 225.888V223.928H89.5376V223.104H89.7376C89.9349 223.104 90.0842 223.048 90.1856 222.936C90.2869 222.824 90.3376 222.677 90.3376 222.496V221.912H91.1776ZM93.7177 224.712V227H92.7897V221.208H93.7177V223.48C93.9684 223.155 94.339 222.992 94.8297 222.992C95.2884 222.992 95.6404 223.136 95.8857 223.424C96.131 223.712 96.2537 224.083 96.2537 224.536V227H95.3257V224.696C95.3257 224.435 95.2617 224.227 95.1337 224.072C95.0057 223.912 94.803 223.832 94.5257 223.832C94.2804 223.832 94.0857 223.915 93.9417 224.08C93.803 224.245 93.7284 224.456 93.7177 224.712Z" fill="#9199B1"/>
<path d="M125.256 221.952L124.984 222.736C124.728 222.597 124.432 222.528 124.096 222.528C123.605 222.528 123.197 222.68 122.872 222.984C122.552 223.283 122.371 223.683 122.328 224.184C122.595 223.773 123.035 223.568 123.648 223.568C124.171 223.568 124.595 223.728 124.92 224.048C125.245 224.368 125.408 224.792 125.408 225.32C125.408 225.848 125.219 226.28 124.84 226.616C124.461 226.952 123.995 227.12 123.44 227.12C122.8 227.12 122.293 226.891 121.92 226.432C121.552 225.973 121.368 225.4 121.368 224.712C121.368 223.789 121.627 223.056 122.144 222.512C122.661 221.968 123.331 221.696 124.152 221.696C124.621 221.696 124.989 221.781 125.256 221.952ZM122.432 225.336C122.432 225.624 122.531 225.859 122.728 226.04C122.931 226.216 123.168 226.304 123.44 226.304C123.723 226.304 123.96 226.216 124.152 226.04C124.349 225.864 124.448 225.629 124.448 225.336C124.448 225.043 124.349 224.808 124.152 224.632C123.96 224.456 123.723 224.368 123.44 224.368C123.157 224.368 122.917 224.456 122.72 224.632C122.528 224.808 122.432 225.043 122.432 225.336ZM129.073 227H128.153V223.104H129.041V223.6C129.147 223.408 129.307 223.259 129.521 223.152C129.739 223.045 129.963 222.992 130.193 222.992C130.454 222.992 130.689 223.051 130.897 223.168C131.105 223.285 131.259 223.456 131.361 223.68C131.633 223.221 132.054 222.992 132.625 222.992C133.009 222.992 133.334 223.117 133.601 223.368C133.867 223.619 134.001 223.987 134.001 224.472V227H133.105V224.624C133.105 224.384 133.041 224.192 132.913 224.048C132.79 223.899 132.603 223.824 132.353 223.824C132.113 223.824 131.918 223.907 131.769 224.072C131.619 224.237 131.545 224.443 131.545 224.688V227H130.633V224.624C130.633 224.384 130.569 224.192 130.441 224.048C130.318 223.899 130.131 223.824 129.881 223.824C129.635 223.824 129.438 223.907 129.289 224.072C129.145 224.232 129.073 224.437 129.073 224.688V227ZM136.033 225.96C136.247 226.179 136.505 226.288 136.809 226.288C137.113 226.288 137.369 226.179 137.577 225.96C137.791 225.741 137.897 225.437 137.897 225.048C137.897 224.664 137.791 224.365 137.577 224.152C137.369 223.933 137.113 223.824 136.809 223.824C136.505 223.824 136.247 223.933 136.033 224.152C135.825 224.365 135.721 224.664 135.721 225.048C135.721 225.432 135.825 225.736 136.033 225.96ZM136.809 222.984C137.396 222.984 137.879 223.179 138.257 223.568C138.641 223.957 138.833 224.451 138.833 225.048C138.833 225.645 138.641 226.141 138.257 226.536C137.879 226.925 137.396 227.12 136.809 227.12C136.228 227.12 135.745 226.925 135.361 226.536C134.983 226.141 134.793 225.645 134.793 225.048C134.793 224.451 134.983 223.957 135.361 223.568C135.745 223.179 136.228 222.984 136.809 222.984ZM140.618 224.752V227H139.69V223.104H140.594V223.624C140.717 223.411 140.879 223.253 141.082 223.152C141.29 223.045 141.511 222.992 141.746 222.992C142.205 222.992 142.554 223.136 142.794 223.424C143.034 223.712 143.154 224.083 143.154 224.536V227H142.226V224.696C142.226 224.435 142.162 224.227 142.034 224.072C141.906 223.912 141.703 223.832 141.426 223.832C141.17 223.832 140.97 223.92 140.826 224.096C140.687 224.267 140.618 224.485 140.618 224.752ZM145.42 221.912V223.104H146.228V223.928H145.42V225.736C145.42 225.907 145.46 226.032 145.54 226.112C145.62 226.187 145.745 226.224 145.916 226.224C146.022 226.224 146.129 226.213 146.236 226.192V226.96C146.097 227.019 145.908 227.048 145.668 227.048C145.305 227.048 145.02 226.947 144.812 226.744C144.604 226.536 144.5 226.251 144.5 225.888V223.928H143.78V223.104H143.98C144.177 223.104 144.326 223.048 144.428 222.936C144.529 222.824 144.58 222.677 144.58 222.496V221.912H145.42ZM147.96 224.712V227H147.032V221.208H147.96V223.48C148.211 223.155 148.581 222.992 149.072 222.992C149.531 222.992 149.883 223.136 150.128 223.424C150.373 223.712 150.496 224.083 150.496 224.536V227H149.568V224.696C149.568 224.435 149.504 224.227 149.376 224.072C149.248 223.912 149.045 223.832 148.768 223.832C148.523 223.832 148.328 223.915 148.184 224.08C148.045 224.245 147.971 224.456 147.96 224.712Z" fill="#9199B1"/>
<path d="M176.44 226.824L176.704 226.04C176.955 226.2 177.264 226.28 177.632 226.28C178.165 226.28 178.579 226.133 178.872 225.84C179.165 225.547 179.325 225.149 179.352 224.648C179.251 224.824 179.088 224.968 178.864 225.08C178.645 225.192 178.387 225.248 178.088 225.248C177.597 225.248 177.176 225.091 176.824 224.776C176.472 224.456 176.296 224.032 176.296 223.504C176.296 222.976 176.483 222.544 176.856 222.208C177.229 221.867 177.693 221.696 178.248 221.696C178.829 221.696 179.315 221.904 179.704 222.32C180.099 222.736 180.296 223.336 180.296 224.12C180.296 225.075 180.069 225.813 179.616 226.336C179.168 226.859 178.509 227.12 177.64 227.12C177.427 227.12 177.205 227.091 176.976 227.032C176.747 226.979 176.568 226.909 176.44 226.824ZM179.224 223.472C179.224 223.195 179.125 222.965 178.928 222.784C178.731 222.603 178.499 222.512 178.232 222.512C177.96 222.512 177.725 222.603 177.528 222.784C177.336 222.96 177.24 223.189 177.24 223.472C177.24 223.765 177.336 224 177.528 224.176C177.72 224.352 177.955 224.44 178.232 224.44C178.504 224.44 178.736 224.352 178.928 224.176C179.125 223.995 179.224 223.76 179.224 223.472ZM184.081 227H183.161V223.104H184.049V223.6C184.155 223.408 184.315 223.259 184.529 223.152C184.747 223.045 184.971 222.992 185.201 222.992C185.462 222.992 185.697 223.051 185.905 223.168C186.113 223.285 186.267 223.456 186.369 223.68C186.641 223.221 187.062 222.992 187.633 222.992C188.017 222.992 188.342 223.117 188.609 223.368C188.875 223.619 189.009 223.987 189.009 224.472V227H188.113V224.624C188.113 224.384 188.049 224.192 187.921 224.048C187.798 223.899 187.611 223.824 187.361 223.824C187.121 223.824 186.926 223.907 186.777 224.072C186.627 224.237 186.553 224.443 186.553 224.688V227H185.641V224.624C185.641 224.384 185.577 224.192 185.449 224.048C185.326 223.899 185.139 223.824 184.889 223.824C184.643 223.824 184.446 223.907 184.297 224.072C184.153 224.232 184.081 224.437 184.081 224.688V227ZM191.041 225.96C191.254 226.179 191.513 226.288 191.817 226.288C192.121 226.288 192.377 226.179 192.585 225.96C192.798 225.741 192.905 225.437 192.905 225.048C192.905 224.664 192.798 224.365 192.585 224.152C192.377 223.933 192.121 223.824 191.817 223.824C191.513 223.824 191.254 223.933 191.041 224.152C190.833 224.365 190.729 224.664 190.729 225.048C190.729 225.432 190.833 225.736 191.041 225.96ZM191.817 222.984C192.404 222.984 192.886 223.179 193.265 223.568C193.649 223.957 193.841 224.451 193.841 225.048C193.841 225.645 193.649 226.141 193.265 226.536C192.886 226.925 192.404 227.12 191.817 227.12C191.236 227.12 190.753 226.925 190.369 226.536C189.99 226.141 189.801 225.645 189.801 225.048C189.801 224.451 189.99 223.957 190.369 223.568C190.753 223.179 191.236 222.984 191.817 222.984ZM195.626 224.752V227H194.698V223.104H195.602V223.624C195.724 223.411 195.887 223.253 196.09 223.152C196.298 223.045 196.519 222.992 196.754 222.992C197.212 222.992 197.562 223.136 197.802 223.424C198.042 223.712 198.162 224.083 198.162 224.536V227H197.234V224.696C197.234 224.435 197.17 224.227 197.042 224.072C196.914 223.912 196.711 223.832 196.434 223.832C196.178 223.832 195.978 223.92 195.834 224.096C195.695 224.267 195.626 224.485 195.626 224.752ZM200.428 221.912V223.104H201.236V223.928H200.428V225.736C200.428 225.907 200.468 226.032 200.548 226.112C200.628 226.187 200.753 226.224 200.924 226.224C201.03 226.224 201.137 226.213 201.244 226.192V226.96C201.105 227.019 200.916 227.048 200.676 227.048C200.313 227.048 200.028 226.947 199.82 226.744C199.612 226.536 199.508 226.251 199.508 225.888V223.928H198.788V223.104H198.988C199.185 223.104 199.334 223.048 199.436 222.936C199.537 222.824 199.588 222.677 199.588 222.496V221.912H200.428ZM202.968 224.712V227H202.04V221.208H202.968V223.48C203.218 223.155 203.589 222.992 204.08 222.992C204.538 222.992 204.89 223.136 205.136 223.424C205.381 223.712 205.504 224.083 205.504 224.536V227H204.576V224.696C204.576 224.435 204.512 224.227 204.384 224.072C204.256 223.912 204.053 223.832 203.776 223.832C203.53 223.832 203.336 223.915 203.192 224.08C203.053 224.245 202.978 224.456 202.968 224.712Z" fill="#9199B1"/>
<path d="M233.424 227H232.48V223.448H231.224V222.792C231.587 222.787 231.891 222.693 232.136 222.512C232.381 222.325 232.533 222.093 232.592 221.816H233.424V227ZM235.31 223.76L234.382 223.696C234.366 223.552 234.358 223.453 234.358 223.4C234.358 222.931 234.523 222.531 234.854 222.2C235.19 221.864 235.641 221.696 236.206 221.696C236.761 221.696 237.203 221.853 237.534 222.168C237.865 222.483 238.03 222.869 238.03 223.328C238.03 223.989 237.697 224.525 237.03 224.936L236.022 225.56C235.729 225.736 235.553 225.933 235.494 226.152H238.062V227H234.31C234.321 226.536 234.419 226.131 234.606 225.784C234.793 225.437 235.105 225.128 235.542 224.856L236.398 224.32C236.841 224.043 237.062 223.717 237.062 223.344C237.062 223.115 236.985 222.923 236.83 222.768C236.681 222.613 236.467 222.536 236.19 222.536C235.897 222.536 235.673 222.627 235.518 222.808C235.363 222.984 235.286 223.213 235.286 223.496L235.31 223.76ZM241.767 227H240.847V223.104H241.735V223.6C241.842 223.408 242.002 223.259 242.215 223.152C242.434 223.045 242.658 222.992 242.887 222.992C243.149 222.992 243.383 223.051 243.591 223.168C243.799 223.285 243.954 223.456 244.055 223.68C244.327 223.221 244.749 222.992 245.319 222.992C245.703 222.992 246.029 223.117 246.295 223.368C246.562 223.619 246.695 223.987 246.695 224.472V227H245.799V224.624C245.799 224.384 245.735 224.192 245.607 224.048C245.485 223.899 245.298 223.824 245.047 223.824C244.807 223.824 244.613 223.907 244.463 224.072C244.314 224.237 244.239 224.443 244.239 224.688V227H243.327V224.624C243.327 224.384 243.263 224.192 243.135 224.048C243.013 223.899 242.826 223.824 242.575 223.824C242.33 223.824 242.133 223.907 241.983 224.072C241.839 224.232 241.767 224.437 241.767 224.688V227ZM248.728 225.96C248.941 226.179 249.2 226.288 249.504 226.288C249.808 226.288 250.064 226.179 250.272 225.96C250.485 225.741 250.592 225.437 250.592 225.048C250.592 224.664 250.485 224.365 250.272 224.152C250.064 223.933 249.808 223.824 249.504 223.824C249.2 223.824 248.941 223.933 248.728 224.152C248.52 224.365 248.416 224.664 248.416 225.048C248.416 225.432 248.52 225.736 248.728 225.96ZM249.504 222.984C250.09 222.984 250.573 223.179 250.952 223.568C251.336 223.957 251.528 224.451 251.528 225.048C251.528 225.645 251.336 226.141 250.952 226.536C250.573 226.925 250.09 227.12 249.504 227.12C248.922 227.12 248.44 226.925 248.056 226.536C247.677 226.141 247.488 225.645 247.488 225.048C247.488 224.451 247.677 223.957 248.056 223.568C248.44 223.179 248.922 222.984 249.504 222.984ZM253.312 224.752V227H252.384V223.104H253.288V223.624C253.411 223.411 253.574 223.253 253.776 223.152C253.984 223.045 254.206 222.992 254.44 222.992C254.899 222.992 255.248 223.136 255.488 223.424C255.728 223.712 255.848 224.083 255.848 224.536V227H254.92V224.696C254.92 224.435 254.856 224.227 254.728 224.072C254.6 223.912 254.398 223.832 254.12 223.832C253.864 223.832 253.664 223.92 253.52 224.096C253.382 224.267 253.312 224.485 253.312 224.752ZM258.114 221.912V223.104H258.922V223.928H258.114V225.736C258.114 225.907 258.154 226.032 258.234 226.112C258.314 226.187 258.439 226.224 258.61 226.224C258.717 226.224 258.823 226.213 258.93 226.192V226.96C258.791 227.019 258.602 227.048 258.362 227.048C257.999 227.048 257.714 226.947 257.506 226.744C257.298 226.536 257.194 226.251 257.194 225.888V223.928H256.474V223.104H256.674C256.871 223.104 257.021 223.048 257.122 222.936C257.223 222.824 257.274 222.677 257.274 222.496V221.912H258.114ZM260.654 224.712V227H259.726V221.208H260.654V223.48C260.905 223.155 261.276 222.992 261.766 222.992C262.225 222.992 262.577 223.136 262.822 223.424C263.068 223.712 263.19 224.083 263.19 224.536V227H262.262V224.696C262.262 224.435 262.198 224.227 262.07 224.072C261.942 223.912 261.74 223.832 261.462 223.832C261.217 223.832 261.022 223.915 260.878 224.08C260.74 224.245 260.665 224.456 260.654 224.712Z" fill="#9199B1"/>
<path d="M290.424 227H289.48V223.448H288.224V222.792C288.587 222.787 288.891 222.693 289.136 222.512C289.381 222.325 289.533 222.093 289.592 221.816H290.424V227ZM291.263 225.568L292.167 225.336C292.188 225.619 292.295 225.851 292.487 226.032C292.679 226.213 292.922 226.304 293.215 226.304C293.492 226.304 293.724 226.219 293.911 226.048C294.103 225.872 294.199 225.643 294.199 225.36C294.199 225.056 294.103 224.821 293.911 224.656C293.719 224.485 293.482 224.4 293.199 224.4C292.836 224.4 292.548 224.52 292.335 224.76L291.431 224.432L292.071 221.816H294.911V222.656H292.719L292.399 223.968C292.628 223.728 292.959 223.608 293.391 223.608C293.919 223.608 294.346 223.763 294.671 224.072C295.002 224.381 295.167 224.803 295.167 225.336C295.167 225.837 294.988 226.261 294.631 226.608C294.274 226.955 293.802 227.128 293.215 227.128C292.671 227.128 292.218 226.976 291.855 226.672C291.492 226.363 291.295 225.995 291.263 225.568ZM298.838 227H297.918V223.104H298.806V223.6C298.912 223.408 299.072 223.259 299.286 223.152C299.504 223.045 299.728 222.992 299.958 222.992C300.219 222.992 300.454 223.051 300.662 223.168C300.87 223.285 301.024 223.456 301.126 223.68C301.398 223.221 301.819 222.992 302.39 222.992C302.774 222.992 303.099 223.117 303.366 223.368C303.632 223.619 303.766 223.987 303.766 224.472V227H302.87V224.624C302.87 224.384 302.806 224.192 302.678 224.048C302.555 223.899 302.368 223.824 302.118 223.824C301.878 223.824 301.683 223.907 301.534 224.072C301.384 224.237 301.31 224.443 301.31 224.688V227H300.398V224.624C300.398 224.384 300.334 224.192 300.206 224.048C300.083 223.899 299.896 223.824 299.646 223.824C299.4 223.824 299.203 223.907 299.054 224.072C298.91 224.232 298.838 224.437 298.838 224.688V227ZM305.798 225.96C306.011 226.179 306.27 226.288 306.574 226.288C306.878 226.288 307.134 226.179 307.342 225.96C307.555 225.741 307.662 225.437 307.662 225.048C307.662 224.664 307.555 224.365 307.342 224.152C307.134 223.933 306.878 223.824 306.574 223.824C306.27 223.824 306.011 223.933 305.798 224.152C305.59 224.365 305.486 224.664 305.486 225.048C305.486 225.432 305.59 225.736 305.798 225.96ZM306.574 222.984C307.161 222.984 307.643 223.179 308.022 223.568C308.406 223.957 308.598 224.451 308.598 225.048C308.598 225.645 308.406 226.141 308.022 226.536C307.643 226.925 307.161 227.12 306.574 227.12C305.993 227.12 305.51 226.925 305.126 226.536C304.747 226.141 304.558 225.645 304.558 225.048C304.558 224.451 304.747 223.957 305.126 223.568C305.51 223.179 305.993 222.984 306.574 222.984ZM310.383 224.752V227H309.455V223.104H310.359V223.624C310.481 223.411 310.644 223.253 310.847 223.152C311.055 223.045 311.276 222.992 311.511 222.992C311.969 222.992 312.319 223.136 312.559 223.424C312.799 223.712 312.919 224.083 312.919 224.536V227H311.991V224.696C311.991 224.435 311.927 224.227 311.799 224.072C311.671 223.912 311.468 223.832 311.191 223.832C310.935 223.832 310.735 223.92 310.591 224.096C310.452 224.267 310.383 224.485 310.383 224.752ZM315.184 221.912V223.104H315.992V223.928H315.184V225.736C315.184 225.907 315.224 226.032 315.304 226.112C315.384 226.187 315.51 226.224 315.68 226.224C315.787 226.224 315.894 226.213 316 226.192V226.96C315.862 227.019 315.672 227.048 315.432 227.048C315.07 227.048 314.784 226.947 314.576 226.744C314.368 226.536 314.264 226.251 314.264 225.888V223.928H313.544V223.104H313.744C313.942 223.104 314.091 223.048 314.192 222.936C314.294 222.824 314.344 222.677 314.344 222.496V221.912H315.184ZM317.725 224.712V227H316.797V221.208H317.725V223.48C317.975 223.155 318.346 222.992 318.837 222.992C319.295 222.992 319.647 223.136 319.893 223.424C320.138 223.712 320.261 224.083 320.261 224.536V227H319.333V224.696C319.333 224.435 319.269 224.227 319.141 224.072C319.013 223.912 318.81 223.832 318.533 223.832C318.287 223.832 318.093 223.915 317.949 224.08C317.81 224.245 317.735 224.456 317.725 224.712Z" fill="#9199B1"/>
<path d="M29.656 70H28.68V64.328H29.656V70ZM34.4799 70H30.9759V64.328H34.4799V65.224H31.9359V66.728H34.2399V67.6H31.9359V69.104H34.4799V70ZM39.1522 70H35.5922V64.328H36.5522V69.088H39.1522V70ZM43.4992 65.232H41.6512V70H40.6912V65.232H38.8512V64.328H43.4992V65.232ZM47.9746 65.656L47.1106 65.928C47.0732 65.7093 46.9639 65.5093 46.7826 65.328C46.6012 65.1467 46.3399 65.056 45.9986 65.056C45.7159 65.056 45.4812 65.136 45.2946 65.296C45.1132 65.456 45.0226 65.648 45.0226 65.872C45.0226 66.2613 45.2439 66.504 45.6866 66.6L46.5026 66.768C46.9932 66.864 47.3719 67.0587 47.6386 67.352C47.9052 67.6453 48.0386 67.9947 48.0386 68.4C48.0386 68.8693 47.8572 69.2747 47.4946 69.616C47.1372 69.952 46.6492 70.12 46.0306 70.12C45.3639 70.12 44.8439 69.9467 44.4706 69.6C44.0972 69.248 43.8866 68.84 43.8386 68.376L44.7346 68.12C44.7666 68.44 44.8946 68.7093 45.1186 68.928C45.3426 69.1467 45.6466 69.256 46.0306 69.256C46.3612 69.256 46.6146 69.184 46.7906 69.04C46.9719 68.8907 47.0626 68.7013 47.0626 68.472C47.0626 68.2853 46.9959 68.1253 46.8626 67.992C46.7292 67.8533 46.5426 67.7573 46.3026 67.704L45.5026 67.536C45.0599 67.4453 44.7079 67.2613 44.4466 66.984C44.1906 66.7067 44.0626 66.36 44.0626 65.944C44.0626 65.4693 44.2519 65.0613 44.6306 64.72C45.0092 64.3787 45.4626 64.208 45.9906 64.208C46.5932 64.208 47.0546 64.3547 47.3746 64.648C47.6946 64.936 47.8946 65.272 47.9746 65.656ZM54.5 70H50.94V64.328H51.9V69.088H54.5V70ZM55.4556 69.864C55.333 69.736 55.2716 69.5813 55.2716 69.4C55.2716 69.2187 55.333 69.064 55.4556 68.936C55.5836 68.808 55.7383 68.744 55.9196 68.744C56.101 68.744 56.2556 68.808 56.3836 68.936C56.5116 69.064 56.5756 69.2187 56.5756 69.4C56.5756 69.5813 56.5116 69.736 56.3836 69.864C56.2556 69.9867 56.101 70.048 55.9196 70.048C55.7383 70.048 55.5836 69.9867 55.4556 69.864ZM58.3268 66.76L57.3988 66.696C57.3828 66.552 57.3748 66.4533 57.3748 66.4C57.3748 65.9307 57.5401 65.5307 57.8708 65.2C58.2068 64.864 58.6575 64.696 59.2228 64.696C59.7775 64.696 60.2201 64.8533 60.5508 65.168C60.8815 65.4827 61.0468 65.8693 61.0468 66.328C61.0468 66.9893 60.7135 67.5253 60.0468 67.936L59.0388 68.56C58.7455 68.736 58.5695 68.9333 58.5108 69.152H61.0788V70H57.3268C57.3375 69.536 57.4361 69.1307 57.6228 68.784C57.8095 68.4373 58.1215 68.128 58.5588 67.856L59.4148 67.32C59.8575 67.0427 60.0788 66.7173 60.0788 66.344C60.0788 66.1147 60.0015 65.9227 59.8468 65.768C59.6975 65.6133 59.4841 65.536 59.2068 65.536C58.9135 65.536 58.6895 65.6267 58.5348 65.808C58.3801 65.984 58.3028 66.2133 58.3028 66.496L58.3268 66.76Z" fill="#9199B1"/>
<path d="M31.656 98H30.68V92.328H31.656V98ZM36.4799 98H32.9759V92.328H36.4799V93.224H33.9359V94.728H36.2399V95.6H33.9359V97.104H36.4799V98ZM41.1522 98H37.5922V92.328H38.5522V97.088H41.1522V98ZM45.4992 93.232H43.6512V98H42.6912V93.232H40.8512V92.328H45.4992V93.232ZM49.9746 93.656L49.1106 93.928C49.0732 93.7093 48.9639 93.5093 48.7826 93.328C48.6012 93.1467 48.3399 93.056 47.9986 93.056C47.7159 93.056 47.4812 93.136 47.2946 93.296C47.1132 93.456 47.0226 93.648 47.0226 93.872C47.0226 94.2613 47.2439 94.504 47.6866 94.6L48.5026 94.768C48.9932 94.864 49.3719 95.0587 49.6386 95.352C49.9052 95.6453 50.0386 95.9947 50.0386 96.4C50.0386 96.8693 49.8572 97.2747 49.4946 97.616C49.1372 97.952 48.6492 98.12 48.0306 98.12C47.3639 98.12 46.8439 97.9467 46.4706 97.6C46.0972 97.248 45.8866 96.84 45.8386 96.376L46.7346 96.12C46.7666 96.44 46.8946 96.7093 47.1186 96.928C47.3426 97.1467 47.6466 97.256 48.0306 97.256C48.3612 97.256 48.6146 97.184 48.7906 97.04C48.9719 96.8907 49.0626 96.7013 49.0626 96.472C49.0626 96.2853 48.9959 96.1253 48.8626 95.992C48.7292 95.8533 48.5426 95.7573 48.3026 95.704L47.5026 95.536C47.0599 95.4453 46.7079 95.2613 46.4466 94.984C46.1906 94.7067 46.0626 94.36 46.0626 93.944C46.0626 93.4693 46.2519 93.0613 46.6306 92.72C47.0092 92.3787 47.4626 92.208 47.9906 92.208C48.5932 92.208 49.0546 92.3547 49.3746 92.648C49.6946 92.936 49.8946 93.272 49.9746 93.656ZM56.5 98H52.94V92.328H53.9V97.088H56.5V98ZM57.4556 97.864C57.333 97.736 57.2716 97.5813 57.2716 97.4C57.2716 97.2187 57.333 97.064 57.4556 96.936C57.5836 96.808 57.7383 96.744 57.9196 96.744C58.101 96.744 58.2556 96.808 58.3836 96.936C58.5116 97.064 58.5756 97.2187 58.5756 97.4C58.5756 97.5813 58.5116 97.736 58.3836 97.864C58.2556 97.9867 58.101 98.048 57.9196 98.048C57.7383 98.048 57.5836 97.9867 57.4556 97.864ZM60.8696 98H59.9256V94.448H58.6696V93.792C59.0323 93.7867 59.3363 93.6933 59.5816 93.512C59.827 93.3253 59.979 93.0933 60.0376 92.816H60.8696V98Z" fill="#9199B1"/>
<path d="M16.656 126H15.68V120.328H16.656V126ZM18.8239 123.752V126H17.8959V122.104H18.7999V122.624C18.9226 122.411 19.0853 122.253 19.2879 122.152C19.4959 122.045 19.7173 121.992 19.9519 121.992C20.4106 121.992 20.7599 122.136 20.9999 122.424C21.2399 122.712 21.3599 123.083 21.3599 123.536V126H20.4319V123.696C20.4319 123.435 20.3679 123.227 20.2399 123.072C20.1119 122.912 19.9093 122.832 19.6319 122.832C19.3759 122.832 19.1759 122.92 19.0319 123.096C18.8933 123.267 18.8239 123.485 18.8239 123.752ZM23.6257 120.912V122.104H24.4337V122.928H23.6257V124.736C23.6257 124.907 23.6657 125.032 23.7457 125.112C23.8257 125.187 23.951 125.224 24.1217 125.224C24.2284 125.224 24.335 125.213 24.4417 125.192V125.96C24.303 126.019 24.1137 126.048 23.8737 126.048C23.511 126.048 23.2257 125.947 23.0177 125.744C22.8097 125.536 22.7057 125.251 22.7057 124.888V122.928H21.9857V122.104H22.1857C22.383 122.104 22.5324 122.048 22.6337 121.936C22.735 121.824 22.7857 121.677 22.7857 121.496V120.912H23.6257ZM25.9561 123.624H27.8681C27.8575 123.379 27.7695 123.173 27.6041 123.008C27.4441 122.843 27.2121 122.76 26.9081 122.76C26.6308 122.76 26.4068 122.848 26.2361 123.024C26.0655 123.195 25.9721 123.395 25.9561 123.624ZM27.9721 124.64L28.7561 124.888C28.6441 125.245 28.4335 125.541 28.1241 125.776C27.8201 126.005 27.4441 126.12 26.9961 126.12C26.4415 126.12 25.9695 125.931 25.5801 125.552C25.1961 125.173 25.0041 124.667 25.0041 124.032C25.0041 123.435 25.1908 122.944 25.5641 122.56C25.9428 122.176 26.3881 121.984 26.9001 121.984C27.4975 121.984 27.9641 122.168 28.3001 122.536C28.6361 122.899 28.8041 123.389 28.8041 124.008C28.8041 124.173 28.7961 124.272 28.7801 124.304H25.9321C25.9428 124.597 26.0495 124.84 26.2521 125.032C26.4601 125.224 26.7081 125.32 26.9961 125.32C27.4975 125.32 27.8228 125.093 27.9721 124.64ZM31.9309 122.08V123.024C31.8243 123.008 31.7229 123 31.6269 123C30.9283 123 30.5789 123.381 30.5789 124.144V126H29.6509V122.104H30.5549V122.728C30.6456 122.52 30.7923 122.357 30.9949 122.24C31.1976 122.117 31.4269 122.056 31.6829 122.056C31.7683 122.056 31.8509 122.064 31.9309 122.08ZM33.5856 126H32.6656V122.104H33.5536V122.6C33.6603 122.408 33.8203 122.259 34.0336 122.152C34.2523 122.045 34.4763 121.992 34.7056 121.992C34.967 121.992 35.2016 122.051 35.4096 122.168C35.6176 122.285 35.7723 122.456 35.8736 122.68C36.1456 122.221 36.567 121.992 37.1376 121.992C37.5216 121.992 37.847 122.117 38.1136 122.368C38.3803 122.619 38.5136 122.987 38.5136 123.472V126H37.6176V123.624C37.6176 123.384 37.5536 123.192 37.4256 123.048C37.303 122.899 37.1163 122.824 36.8656 122.824C36.6256 122.824 36.431 122.907 36.2816 123.072C36.1323 123.237 36.0576 123.443 36.0576 123.688V126H35.1456V123.624C35.1456 123.384 35.0816 123.192 34.9536 123.048C34.831 122.899 34.6443 122.824 34.3936 122.824C34.1483 122.824 33.951 122.907 33.8016 123.072C33.6576 123.232 33.5856 123.437 33.5856 123.688V126ZM40.258 123.624H42.17C42.1593 123.379 42.0713 123.173 41.906 123.008C41.746 122.843 41.514 122.76 41.21 122.76C40.9327 122.76 40.7087 122.848 40.538 123.024C40.3673 123.195 40.274 123.395 40.258 123.624ZM42.274 124.64L43.058 124.888C42.946 125.245 42.7353 125.541 42.426 125.776C42.122 126.005 41.746 126.12 41.298 126.12C40.7433 126.12 40.2713 125.931 39.882 125.552C39.498 125.173 39.306 124.667 39.306 124.032C39.306 123.435 39.4927 122.944 39.866 122.56C40.2447 122.176 40.69 121.984 41.202 121.984C41.7993 121.984 42.266 122.168 42.602 122.536C42.938 122.899 43.106 123.389 43.106 124.008C43.106 124.173 43.098 124.272 43.082 124.304H40.234C40.2447 124.597 40.3513 124.84 40.554 125.032C40.762 125.224 41.01 125.32 41.298 125.32C41.7993 125.32 42.1247 125.093 42.274 124.64ZM44.5768 124.04C44.5768 124.413 44.6728 124.715 44.8648 124.944C45.0568 125.168 45.3101 125.28 45.6248 125.28C45.9288 125.28 46.1768 125.165 46.3688 124.936C46.5608 124.707 46.6568 124.405 46.6568 124.032C46.6568 123.664 46.5635 123.371 46.3768 123.152C46.1901 122.933 45.9421 122.824 45.6328 122.824C45.3235 122.824 45.0701 122.936 44.8728 123.16C44.6755 123.379 44.5768 123.672 44.5768 124.04ZM47.5528 120.208V125.288C47.5528 125.549 47.5661 125.787 47.5928 126H46.7048C46.6781 125.851 46.6648 125.683 46.6648 125.496C46.5688 125.672 46.4195 125.816 46.2168 125.928C46.0141 126.04 45.7821 126.096 45.5208 126.096C44.9661 126.096 44.5155 125.901 44.1688 125.512C43.8221 125.123 43.6488 124.632 43.6488 124.04C43.6488 123.469 43.8221 122.987 44.1688 122.592C44.5208 122.197 44.9661 122 45.5048 122C45.8141 122 46.0621 122.056 46.2488 122.168C46.4408 122.28 46.5741 122.411 46.6488 122.56V120.208H47.5528ZM49.6453 126H48.7253V122.104H49.6453V126ZM48.7573 121.16C48.64 121.043 48.5813 120.901 48.5813 120.736C48.5813 120.571 48.64 120.429 48.7573 120.312C48.8746 120.189 49.016 120.128 49.1813 120.128C49.352 120.128 49.496 120.187 49.6133 120.304C49.7306 120.421 49.7893 120.565 49.7893 120.736C49.7893 120.901 49.7306 121.043 49.6133 121.16C49.496 121.277 49.352 121.336 49.1813 121.336C49.016 121.336 48.8746 121.277 48.7573 121.16ZM50.5625 124.944C50.5625 124.613 50.6692 124.349 50.8825 124.152C51.1012 123.949 51.3865 123.821 51.7385 123.768L52.7385 123.616C52.9305 123.589 53.0265 123.496 53.0265 123.336C53.0265 123.16 52.9652 123.019 52.8425 122.912C52.7198 122.8 52.5358 122.744 52.2905 122.744C52.0558 122.744 51.8692 122.811 51.7305 122.944C51.5918 123.072 51.5118 123.24 51.4905 123.448L50.6425 123.256C50.6798 122.904 50.8478 122.605 51.1465 122.36C51.4452 122.109 51.8238 121.984 52.2825 121.984C52.8478 121.984 53.2638 122.12 53.5305 122.392C53.8025 122.664 53.9385 123.013 53.9385 123.44V125.376C53.9385 125.632 53.9545 125.84 53.9865 126H53.1225C53.0958 125.92 53.0825 125.755 53.0825 125.504C52.8265 125.915 52.4265 126.12 51.8825 126.12C51.4878 126.12 51.1678 126.005 50.9225 125.776C50.6825 125.541 50.5625 125.264 50.5625 124.944ZM52.0585 125.392C52.3465 125.392 52.5785 125.315 52.7545 125.16C52.9358 125 53.0265 124.741 53.0265 124.384V124.208L52.0105 124.36C51.6638 124.419 51.4905 124.595 51.4905 124.888C51.4905 125.027 51.5412 125.147 51.6425 125.248C51.7438 125.344 51.8825 125.392 52.0585 125.392ZM56.1807 120.912V122.104H56.9887V122.928H56.1807V124.736C56.1807 124.907 56.2207 125.032 56.3007 125.112C56.3807 125.187 56.506 125.224 56.6767 125.224C56.7834 125.224 56.89 125.213 56.9967 125.192V125.96C56.858 126.019 56.6687 126.048 56.4287 126.048C56.066 126.048 55.7807 125.947 55.5727 125.744C55.3647 125.536 55.2607 125.251 55.2607 124.888V122.928H54.5407V122.104H54.7407C54.938 122.104 55.0874 122.048 55.1887 121.936C55.29 121.824 55.3407 121.677 55.3407 121.496V120.912H56.1807ZM58.5111 123.624H60.4231C60.4125 123.379 60.3245 123.173 60.1591 123.008C59.9991 122.843 59.7671 122.76 59.4631 122.76C59.1858 122.76 58.9618 122.848 58.7911 123.024C58.6205 123.195 58.5271 123.395 58.5111 123.624ZM60.5271 124.64L61.3111 124.888C61.1991 125.245 60.9885 125.541 60.6791 125.776C60.3751 126.005 59.9991 126.12 59.5511 126.12C58.9965 126.12 58.5245 125.931 58.1351 125.552C57.7511 125.173 57.5591 124.667 57.5591 124.032C57.5591 123.435 57.7458 122.944 58.1191 122.56C58.4978 122.176 58.9431 121.984 59.4551 121.984C60.0525 121.984 60.5191 122.168 60.8551 122.536C61.1911 122.899 61.3591 123.389 61.3591 124.008C61.3591 124.173 61.3511 124.272 61.3351 124.304H58.4871C58.4978 124.597 58.6045 124.84 58.8071 125.032C59.0151 125.224 59.2631 125.32 59.5511 125.32C60.0525 125.32 60.3778 125.093 60.5271 124.64Z" fill="#9199B1"/>
<path d="M1.64 150.936H2.64C2.944 150.936 3.18133 150.859 3.352 150.704C3.528 150.544 3.616 150.331 3.616 150.064C3.616 149.792 3.528 149.576 3.352 149.416C3.18133 149.256 2.944 149.176 2.64 149.176H1.64V150.936ZM2.784 151.784H1.64V154H0.68V148.328H2.784C3.32267 148.328 3.75733 148.491 4.088 148.816C4.424 149.141 4.592 149.555 4.592 150.056C4.592 150.563 4.424 150.979 4.088 151.304C3.75733 151.624 3.32267 151.784 2.784 151.784ZM7.55094 150.08V151.024C7.44427 151.008 7.34294 151 7.24694 151C6.54827 151 6.19894 151.381 6.19894 152.144V154H5.27094V150.104H6.17494V150.728C6.2656 150.52 6.41227 150.357 6.61494 150.24C6.8176 150.117 7.04694 150.056 7.30294 150.056C7.38827 150.056 7.47094 150.064 7.55094 150.08ZM8.89456 151.624H10.8066C10.7959 151.379 10.7079 151.173 10.5426 151.008C10.3826 150.843 10.1506 150.76 9.84656 150.76C9.56923 150.76 9.34523 150.848 9.17456 151.024C9.0039 151.195 8.91056 151.395 8.89456 151.624ZM10.9106 152.64L11.6946 152.888C11.5826 153.245 11.3719 153.541 11.0626 153.776C10.7586 154.005 10.3826 154.12 9.93456 154.12C9.3799 154.12 8.9079 153.931 8.51856 153.552C8.13456 153.173 7.94256 152.667 7.94256 152.032C7.94256 151.435 8.12923 150.944 8.50256 150.56C8.88123 150.176 9.32656 149.984 9.83856 149.984C10.4359 149.984 10.9026 150.168 11.2386 150.536C11.5746 150.899 11.7426 151.389 11.7426 152.008C11.7426 152.173 11.7346 152.272 11.7186 152.304H8.87056C8.88123 152.597 8.9879 152.84 9.19056 153.032C9.39856 153.224 9.64656 153.32 9.93456 153.32C10.4359 153.32 10.7612 153.093 10.9106 152.64ZM14.6054 152.072H12.3494V151.248H14.6054V152.072ZM16.5819 154H15.6059V148.328H16.5819V154ZM18.7499 151.752V154H17.8219V150.104H18.7259V150.624C18.8485 150.411 19.0112 150.253 19.2139 150.152C19.4219 150.045 19.6432 149.992 19.8779 149.992C20.3365 149.992 20.6859 150.136 20.9259 150.424C21.1659 150.712 21.2859 151.083 21.2859 151.536V154H20.3579V151.696C20.3579 151.435 20.2939 151.227 20.1659 151.072C20.0379 150.912 19.8352 150.832 19.5579 150.832C19.3019 150.832 19.1019 150.92 18.9579 151.096C18.8192 151.267 18.7499 151.485 18.7499 151.752ZM23.5516 148.912V150.104H24.3596V150.928H23.5516V152.736C23.5516 152.907 23.5916 153.032 23.6716 153.112C23.7516 153.187 23.877 153.224 24.0476 153.224C24.1543 153.224 24.261 153.213 24.3676 153.192V153.96C24.229 154.019 24.0396 154.048 23.7996 154.048C23.437 154.048 23.1516 153.947 22.9436 153.744C22.7356 153.536 22.6316 153.251 22.6316 152.888V150.928H21.9116V150.104H22.1116C22.309 150.104 22.4583 150.048 22.5596 149.936C22.661 149.824 22.7116 149.677 22.7116 149.496V148.912H23.5516ZM25.8821 151.624H27.7941C27.7834 151.379 27.6954 151.173 27.5301 151.008C27.3701 150.843 27.1381 150.76 26.8341 150.76C26.5567 150.76 26.3327 150.848 26.1621 151.024C25.9914 151.195 25.8981 151.395 25.8821 151.624ZM27.8981 152.64L28.6821 152.888C28.5701 153.245 28.3594 153.541 28.0501 153.776C27.7461 154.005 27.3701 154.12 26.9221 154.12C26.3674 154.12 25.8954 153.931 25.5061 153.552C25.1221 153.173 24.9301 152.667 24.9301 152.032C24.9301 151.435 25.1167 150.944 25.4901 150.56C25.8687 150.176 26.3141 149.984 26.8261 149.984C27.4234 149.984 27.8901 150.168 28.2261 150.536C28.5621 150.899 28.7301 151.389 28.7301 152.008C28.7301 152.173 28.7221 152.272 28.7061 152.304H25.8581C25.8687 152.597 25.9754 152.84 26.1781 153.032C26.3861 153.224 26.6341 153.32 26.9221 153.32C27.4234 153.32 27.7487 153.093 27.8981 152.64ZM31.8569 150.08V151.024C31.7502 151.008 31.6489 151 31.5529 151C30.8542 151 30.5049 151.381 30.5049 152.144V154H29.5769V150.104H30.4809V150.728C30.5715 150.52 30.7182 150.357 30.9209 150.24C31.1235 150.117 31.3529 150.056 31.6089 150.056C31.6942 150.056 31.7769 150.064 31.8569 150.08ZM33.5116 154H32.5916V150.104H33.4796V150.6C33.5862 150.408 33.7462 150.259 33.9596 150.152C34.1782 150.045 34.4022 149.992 34.6316 149.992C34.8929 149.992 35.1276 150.051 35.3356 150.168C35.5436 150.285 35.6982 150.456 35.7996 150.68C36.0716 150.221 36.4929 149.992 37.0636 149.992C37.4476 149.992 37.7729 150.117 38.0396 150.368C38.3062 150.619 38.4396 150.987 38.4396 151.472V154H37.5436V151.624C37.5436 151.384 37.4796 151.192 37.3516 151.048C37.2289 150.899 37.0422 150.824 36.7916 150.824C36.5516 150.824 36.3569 150.907 36.2076 151.072C36.0582 151.237 35.9836 151.443 35.9836 151.688V154H35.0716V151.624C35.0716 151.384 35.0076 151.192 34.8796 151.048C34.7569 150.899 34.5702 150.824 34.3196 150.824C34.0742 150.824 33.8769 150.907 33.7276 151.072C33.5836 151.232 33.5116 151.437 33.5116 151.688V154ZM40.1839 151.624H42.0959C42.0853 151.379 41.9973 151.173 41.8319 151.008C41.6719 150.843 41.4399 150.76 41.1359 150.76C40.8586 150.76 40.6346 150.848 40.4639 151.024C40.2933 151.195 40.1999 151.395 40.1839 151.624ZM42.1999 152.64L42.9839 152.888C42.8719 153.245 42.6613 153.541 42.3519 153.776C42.0479 154.005 41.6719 154.12 41.2239 154.12C40.6693 154.12 40.1973 153.931 39.8079 153.552C39.4239 153.173 39.2319 152.667 39.2319 152.032C39.2319 151.435 39.4186 150.944 39.7919 150.56C40.1706 150.176 40.6159 149.984 41.1279 149.984C41.7253 149.984 42.1919 150.168 42.5279 150.536C42.8639 150.899 43.0319 151.389 43.0319 152.008C43.0319 152.173 43.0239 152.272 43.0079 152.304H40.1599C40.1706 152.597 40.2773 152.84 40.4799 153.032C40.6879 153.224 40.9359 153.32 41.2239 153.32C41.7253 153.32 42.0506 153.093 42.1999 152.64ZM44.5028 152.04C44.5028 152.413 44.5988 152.715 44.7908 152.944C44.9828 153.168 45.2361 153.28 45.5508 153.28C45.8548 153.28 46.1028 153.165 46.2948 152.936C46.4868 152.707 46.5828 152.405 46.5828 152.032C46.5828 151.664 46.4894 151.371 46.3028 151.152C46.1161 150.933 45.8681 150.824 45.5588 150.824C45.2494 150.824 44.9961 150.936 44.7988 151.16C44.6014 151.379 44.5028 151.672 44.5028 152.04ZM47.4788 148.208V153.288C47.4788 153.549 47.4921 153.787 47.5188 154H46.6308C46.6041 153.851 46.5908 153.683 46.5908 153.496C46.4948 153.672 46.3454 153.816 46.1428 153.928C45.9401 154.04 45.7081 154.096 45.4468 154.096C44.8921 154.096 44.4414 153.901 44.0948 153.512C43.7481 153.123 43.5748 152.632 43.5748 152.04C43.5748 151.469 43.7481 150.987 44.0948 150.592C44.4468 150.197 44.8921 150 45.4308 150C45.7401 150 45.9881 150.056 46.1748 150.168C46.3668 150.28 46.5001 150.411 46.5748 150.56V148.208H47.4788ZM49.5713 154H48.6513V150.104H49.5713V154ZM48.6833 149.16C48.5659 149.043 48.5073 148.901 48.5073 148.736C48.5073 148.571 48.5659 148.429 48.6833 148.312C48.8006 148.189 48.9419 148.128 49.1073 148.128C49.2779 148.128 49.4219 148.187 49.5393 148.304C49.6566 148.421 49.7153 148.565 49.7153 148.736C49.7153 148.901 49.6566 149.043 49.5393 149.16C49.4219 149.277 49.2779 149.336 49.1073 149.336C48.9419 149.336 48.8006 149.277 48.6833 149.16ZM50.4884 152.944C50.4884 152.613 50.5951 152.349 50.8084 152.152C51.0271 151.949 51.3124 151.821 51.6644 151.768L52.6644 151.616C52.8564 151.589 52.9524 151.496 52.9524 151.336C52.9524 151.16 52.8911 151.019 52.7684 150.912C52.6458 150.8 52.4618 150.744 52.2164 150.744C51.9818 150.744 51.7951 150.811 51.6564 150.944C51.5178 151.072 51.4378 151.24 51.4164 151.448L50.5684 151.256C50.6058 150.904 50.7738 150.605 51.0724 150.36C51.3711 150.109 51.7498 149.984 52.2084 149.984C52.7738 149.984 53.1898 150.12 53.4564 150.392C53.7284 150.664 53.8644 151.013 53.8644 151.44V153.376C53.8644 153.632 53.8804 153.84 53.9124 154H53.0484C53.0218 153.92 53.0084 153.755 53.0084 153.504C52.7524 153.915 52.3524 154.12 51.8084 154.12C51.4138 154.12 51.0938 154.005 50.8484 153.776C50.6084 153.541 50.4884 153.264 50.4884 152.944ZM51.9844 153.392C52.2724 153.392 52.5044 153.315 52.6804 153.16C52.8618 153 52.9524 152.741 52.9524 152.384V152.208L51.9364 152.36C51.5898 152.419 51.4164 152.595 51.4164 152.888C51.4164 153.027 51.4671 153.147 51.5684 153.248C51.6698 153.344 51.8084 153.392 51.9844 153.392ZM56.1066 148.912V150.104H56.9146V150.928H56.1066V152.736C56.1066 152.907 56.1466 153.032 56.2266 153.112C56.3066 153.187 56.432 153.224 56.6026 153.224C56.7093 153.224 56.816 153.213 56.9226 153.192V153.96C56.784 154.019 56.5946 154.048 56.3546 154.048C55.992 154.048 55.7066 153.947 55.4986 153.744C55.2906 153.536 55.1866 153.251 55.1866 152.888V150.928H54.4666V150.104H54.6666C54.864 150.104 55.0133 150.048 55.1146 149.936C55.216 149.824 55.2666 149.677 55.2666 149.496V148.912H56.1066ZM58.4371 151.624H60.3491C60.3384 151.379 60.2504 151.173 60.0851 151.008C59.9251 150.843 59.6931 150.76 59.3891 150.76C59.1117 150.76 58.8877 150.848 58.7171 151.024C58.5464 151.195 58.4531 151.395 58.4371 151.624ZM60.4531 152.64L61.2371 152.888C61.1251 153.245 60.9144 153.541 60.6051 153.776C60.3011 154.005 59.9251 154.12 59.4771 154.12C58.9224 154.12 58.4504 153.931 58.0611 153.552C57.6771 153.173 57.4851 152.667 57.4851 152.032C57.4851 151.435 57.6717 150.944 58.0451 150.56C58.4237 150.176 58.8691 149.984 59.3811 149.984C59.9784 149.984 60.4451 150.168 60.7811 150.536C61.1171 150.899 61.2851 151.389 61.2851 152.008C61.2851 152.173 61.2771 152.272 61.2611 152.304H58.4131C58.4237 152.597 58.5304 152.84 58.7331 153.032C58.9411 153.224 59.1891 153.32 59.4771 153.32C59.9784 153.32 60.3037 153.093 60.4531 152.64Z" fill="#9199B1"/>
<path d="M24.184 182H20.68V176.328H24.184V177.224H21.64V178.728H23.944V179.6H21.64V181.104H24.184V182ZM26.1443 182H25.2163V176.208H26.1443V182ZM27.9493 179.624H29.8613C29.8506 179.379 29.7626 179.173 29.5973 179.008C29.4373 178.843 29.2053 178.76 28.9013 178.76C28.6239 178.76 28.3999 178.848 28.2293 179.024C28.0586 179.195 27.9653 179.395 27.9493 179.624ZM29.9653 180.64L30.7493 180.888C30.6373 181.245 30.4266 181.541 30.1173 181.776C29.8133 182.005 29.4373 182.12 28.9893 182.12C28.4346 182.12 27.9626 181.931 27.5733 181.552C27.1893 181.173 26.9973 180.667 26.9973 180.032C26.9973 179.435 27.1839 178.944 27.5573 178.56C27.9359 178.176 28.3813 177.984 28.8933 177.984C29.4906 177.984 29.9573 178.168 30.2933 178.536C30.6293 178.899 30.7973 179.389 30.7973 180.008C30.7973 180.173 30.7893 180.272 30.7733 180.304H27.9253C27.9359 180.597 28.0426 180.84 28.2453 181.032C28.4533 181.224 28.7013 181.32 28.9893 181.32C29.4906 181.32 29.8159 181.093 29.9653 180.64ZM32.5641 182H31.6441V178.104H32.5321V178.6C32.6387 178.408 32.7987 178.259 33.0121 178.152C33.2307 178.045 33.4547 177.992 33.6841 177.992C33.9454 177.992 34.1801 178.051 34.3881 178.168C34.5961 178.285 34.7507 178.456 34.8521 178.68C35.1241 178.221 35.5454 177.992 36.1161 177.992C36.5001 177.992 36.8254 178.117 37.0921 178.368C37.3587 178.619 37.4921 178.987 37.4921 179.472V182H36.5961V179.624C36.5961 179.384 36.5321 179.192 36.4041 179.048C36.2814 178.899 36.0947 178.824 35.8441 178.824C35.6041 178.824 35.4094 178.907 35.2601 179.072C35.1107 179.237 35.0361 179.443 35.0361 179.688V182H34.1241V179.624C34.1241 179.384 34.0601 179.192 33.9321 179.048C33.8094 178.899 33.6227 178.824 33.3721 178.824C33.1267 178.824 32.9294 178.907 32.7801 179.072C32.6361 179.232 32.5641 179.437 32.5641 179.688V182ZM39.2364 179.624H41.1484C41.1378 179.379 41.0498 179.173 40.8844 179.008C40.7244 178.843 40.4924 178.76 40.1884 178.76C39.9111 178.76 39.6871 178.848 39.5164 179.024C39.3458 179.195 39.2524 179.395 39.2364 179.624ZM41.2524 180.64L42.0364 180.888C41.9244 181.245 41.7138 181.541 41.4044 181.776C41.1004 182.005 40.7244 182.12 40.2764 182.12C39.7218 182.12 39.2498 181.931 38.8604 181.552C38.4764 181.173 38.2844 180.667 38.2844 180.032C38.2844 179.435 38.4711 178.944 38.8444 178.56C39.2231 178.176 39.6684 177.984 40.1804 177.984C40.7778 177.984 41.2444 178.168 41.5804 178.536C41.9164 178.899 42.0844 179.389 42.0844 180.008C42.0844 180.173 42.0764 180.272 42.0604 180.304H39.2124C39.2231 180.597 39.3298 180.84 39.5324 181.032C39.7404 181.224 39.9884 181.32 40.2764 181.32C40.7778 181.32 41.1031 181.093 41.2524 180.64ZM43.8592 179.752V182H42.9312V178.104H43.8352V178.624C43.9579 178.411 44.1206 178.253 44.3232 178.152C44.5312 178.045 44.7526 177.992 44.9872 177.992C45.4459 177.992 45.7952 178.136 46.0352 178.424C46.2752 178.712 46.3952 179.083 46.3952 179.536V182H45.4672V179.696C45.4672 179.435 45.4032 179.227 45.2752 179.072C45.1472 178.912 44.9446 178.832 44.6672 178.832C44.4112 178.832 44.2112 178.92 44.0672 179.096C43.9286 179.267 43.8592 179.485 43.8592 179.752ZM48.661 176.912V178.104H49.469V178.928H48.661V180.736C48.661 180.907 48.701 181.032 48.781 181.112C48.861 181.187 48.9863 181.224 49.157 181.224C49.2637 181.224 49.3703 181.213 49.477 181.192V181.96C49.3383 182.019 49.149 182.048 48.909 182.048C48.5463 182.048 48.261 181.947 48.053 181.744C47.845 181.536 47.741 181.251 47.741 180.888V178.928H47.021V178.104H47.221C47.4183 178.104 47.5677 178.048 47.669 177.936C47.7703 177.824 47.821 177.677 47.821 177.496V176.912H48.661ZM50.1503 180.944C50.1503 180.613 50.257 180.349 50.4703 180.152C50.689 179.949 50.9743 179.821 51.3263 179.768L52.3263 179.616C52.5183 179.589 52.6143 179.496 52.6143 179.336C52.6143 179.16 52.553 179.019 52.4303 178.912C52.3076 178.8 52.1236 178.744 51.8783 178.744C51.6436 178.744 51.457 178.811 51.3183 178.944C51.1796 179.072 51.0996 179.24 51.0783 179.448L50.2303 179.256C50.2676 178.904 50.4356 178.605 50.7343 178.36C51.033 178.109 51.4116 177.984 51.8703 177.984C52.4356 177.984 52.8516 178.12 53.1183 178.392C53.3903 178.664 53.5263 179.013 53.5263 179.44V181.376C53.5263 181.632 53.5423 181.84 53.5743 182H52.7103C52.6836 181.92 52.6703 181.755 52.6703 181.504C52.4143 181.915 52.0143 182.12 51.4703 182.12C51.0756 182.12 50.7556 182.005 50.5103 181.776C50.2703 181.541 50.1503 181.264 50.1503 180.944ZM51.6463 181.392C51.9343 181.392 52.1663 181.315 52.3423 181.16C52.5236 181 52.6143 180.741 52.6143 180.384V180.208L51.5983 180.36C51.2516 180.419 51.0783 180.595 51.0783 180.888C51.0783 181.027 51.129 181.147 51.2303 181.248C51.3316 181.344 51.4703 181.392 51.6463 181.392ZM56.8881 178.08V179.024C56.7815 179.008 56.6801 179 56.5841 179C55.8855 179 55.5361 179.381 55.5361 180.144V182H54.6081V178.104H55.5121V178.728C55.6028 178.52 55.7495 178.357 55.9521 178.24C56.1548 178.117 56.3841 178.056 56.6401 178.056C56.7255 178.056 56.8081 178.064 56.8881 178.08ZM58.9474 183.576H57.9554L58.8914 181.536L57.2274 178.104H58.2754L59.3954 180.568L60.4434 178.104H61.4274L58.9474 183.576Z" fill="#9199B1"/>
<path d="M29.68 204.328H31.632C32.1653 204.328 32.5867 204.469 32.896 204.752C33.2053 205.035 33.36 205.403 33.36 205.856C33.36 206.149 33.2827 206.405 33.128 206.624C32.9733 206.837 32.7707 206.989 32.52 207.08C32.824 207.16 33.0693 207.323 33.256 207.568C33.4427 207.813 33.536 208.101 33.536 208.432C33.536 208.891 33.3733 209.267 33.048 209.56C32.7227 209.853 32.2987 210 31.776 210H29.68V204.328ZM30.632 206.728H31.504C31.7813 206.728 32 206.656 32.16 206.512C32.32 206.368 32.4 206.176 32.4 205.936C32.4 205.691 32.3173 205.499 32.152 205.36C31.992 205.216 31.768 205.144 31.48 205.144H30.632V206.728ZM30.632 209.184H31.608C31.896 209.184 32.1253 209.112 32.296 208.968C32.472 208.819 32.56 208.619 32.56 208.368C32.56 208.117 32.4773 207.917 32.312 207.768C32.152 207.613 31.928 207.536 31.64 207.536H30.632V209.184ZM35.1064 207.624H37.0184C37.0078 207.379 36.9198 207.173 36.7544 207.008C36.5944 206.843 36.3624 206.76 36.0584 206.76C35.7811 206.76 35.5571 206.848 35.3864 207.024C35.2158 207.195 35.1224 207.395 35.1064 207.624ZM37.1224 208.64L37.9064 208.888C37.7944 209.245 37.5838 209.541 37.2744 209.776C36.9704 210.005 36.5944 210.12 36.1464 210.12C35.5918 210.12 35.1198 209.931 34.7304 209.552C34.3464 209.173 34.1544 208.667 34.1544 208.032C34.1544 207.435 34.3411 206.944 34.7144 206.56C35.0931 206.176 35.5384 205.984 36.0504 205.984C36.6478 205.984 37.1144 206.168 37.4504 206.536C37.7864 206.899 37.9544 207.389 37.9544 208.008C37.9544 208.173 37.9464 208.272 37.9304 208.304H35.0824C35.0931 208.597 35.1998 208.84 35.4024 209.032C35.6104 209.224 35.8584 209.32 36.1464 209.32C36.6478 209.32 36.9731 209.093 37.1224 208.64ZM38.5213 210.216L39.3773 209.992C39.4093 210.237 39.5133 210.437 39.6893 210.592C39.8706 210.752 40.0919 210.832 40.3533 210.832C41.0893 210.832 41.4573 210.443 41.4573 209.664V209.256C41.3666 209.421 41.2226 209.557 41.0253 209.664C40.8279 209.771 40.5959 209.824 40.3293 209.824C39.8066 209.824 39.3746 209.645 39.0333 209.288C38.6973 208.931 38.5293 208.477 38.5293 207.928C38.5293 207.4 38.6973 206.952 39.0333 206.584C39.3693 206.216 39.8013 206.032 40.3293 206.032C40.8999 206.032 41.2839 206.221 41.4813 206.6V206.104H42.3773V209.632C42.3773 210.208 42.2146 210.685 41.8893 211.064C41.5639 211.448 41.0599 211.64 40.3773 211.64C39.8759 211.64 39.4546 211.504 39.1133 211.232C38.7719 210.96 38.5746 210.621 38.5213 210.216ZM40.4813 209.032C40.7799 209.032 41.0199 208.933 41.2013 208.736C41.3879 208.533 41.4813 208.264 41.4813 207.928C41.4813 207.597 41.3879 207.333 41.2013 207.136C41.0146 206.933 40.7746 206.832 40.4813 206.832C40.1826 206.832 39.9373 206.933 39.7453 207.136C39.5586 207.333 39.4653 207.597 39.4653 207.928C39.4653 208.264 39.5586 208.533 39.7453 208.736C39.9319 208.933 40.1773 209.032 40.4813 209.032ZM44.3922 210H43.4722V206.104H44.3922V210ZM43.5042 205.16C43.3869 205.043 43.3282 204.901 43.3282 204.736C43.3282 204.571 43.3869 204.429 43.5042 204.312C43.6215 204.189 43.7629 204.128 43.9282 204.128C44.0989 204.128 44.2429 204.187 44.3602 204.304C44.4775 204.421 44.5362 204.565 44.5362 204.736C44.5362 204.901 44.4775 205.043 44.3602 205.16C44.2429 205.277 44.0989 205.336 43.9282 205.336C43.7629 205.336 43.6215 205.277 43.5042 205.16ZM46.4774 207.752V210H45.5494V206.104H46.4534V206.624C46.576 206.411 46.7387 206.253 46.9414 206.152C47.1494 206.045 47.3707 205.992 47.6054 205.992C48.064 205.992 48.4134 206.136 48.6534 206.424C48.8934 206.712 49.0134 207.083 49.0134 207.536V210H48.0854V207.696C48.0854 207.435 48.0214 207.227 47.8934 207.072C47.7654 206.912 47.5627 206.832 47.2854 206.832C47.0294 206.832 46.8294 206.92 46.6854 207.096C46.5467 207.267 46.4774 207.485 46.4774 207.752ZM51.0311 207.752V210H50.1031V206.104H51.0071V206.624C51.1298 206.411 51.2925 206.253 51.4951 206.152C51.7031 206.045 51.9245 205.992 52.1591 205.992C52.6178 205.992 52.9671 206.136 53.2071 206.424C53.4471 206.712 53.5671 207.083 53.5671 207.536V210H52.6391V207.696C52.6391 207.435 52.5751 207.227 52.4471 207.072C52.3191 206.912 52.1165 206.832 51.8391 206.832C51.5831 206.832 51.3831 206.92 51.2391 207.096C51.1005 207.267 51.0311 207.485 51.0311 207.752ZM55.3049 207.624H57.2169C57.2062 207.379 57.1182 207.173 56.9529 207.008C56.7929 206.843 56.5609 206.76 56.2569 206.76C55.9795 206.76 55.7555 206.848 55.5849 207.024C55.4142 207.195 55.3209 207.395 55.3049 207.624ZM57.3209 208.64L58.1049 208.888C57.9929 209.245 57.7822 209.541 57.4729 209.776C57.1689 210.005 56.7929 210.12 56.3449 210.12C55.7902 210.12 55.3182 209.931 54.9289 209.552C54.5449 209.173 54.3529 208.667 54.3529 208.032C54.3529 207.435 54.5395 206.944 54.9129 206.56C55.2915 206.176 55.7369 205.984 56.2489 205.984C56.8462 205.984 57.3129 206.168 57.6489 206.536C57.9849 206.899 58.1529 207.389 58.1529 208.008C58.1529 208.173 58.1449 208.272 58.1289 208.304H55.2809C55.2915 208.597 55.3982 208.84 55.6009 209.032C55.8089 209.224 56.0569 209.32 56.3449 209.32C56.8462 209.32 57.1715 209.093 57.3209 208.64ZM61.2797 206.08V207.024C61.173 207.008 61.0717 207 60.9757 207C60.277 207 59.9277 207.381 59.9277 208.144V210H58.9997V206.104H59.9037V206.728C59.9944 206.52 60.141 206.357 60.3437 206.24C60.5464 206.117 60.7757 206.056 61.0317 206.056C61.117 206.056 61.1997 206.064 61.2797 206.08Z" fill="#9199B1"/>
<line x1="67" y1="179.75" x2="318" y2="179.75" stroke="#D1D5E4" stroke-width="0.5" stroke-dasharray="10 10"/>
<line x1="67" y1="207.75" x2="318" y2="207.75" stroke="#D1D5E4" stroke-width="0.5" stroke-dasharray="10 10"/>
<circle cx="67.5" cy="207.5" r="2.5" fill="#15A2FA"/>
<circle cx="134.5" cy="178.5" r="2.5" fill="#15A2FA"/>
<circle cx="189.5" cy="150.5" r="2.5" fill="#15A2FA"/>
<circle cx="245.5" cy="123.5" r="2.5" fill="#15A2FA"/>
<circle cx="273.5" cy="87.5" r="2.5" fill="#15A2FA"/>
<circle cx="307.5" cy="67.5" r="2.5" fill="#15A2FA"/>
<circle cx="137.5" cy="190.5" r="2.5" fill="#E60C21"/>
<circle cx="190.5" cy="163.5" r="2.5" fill="#E60C21"/>
<circle cx="245.5" cy="151.5" r="2.5" fill="#E60C21"/>
<circle cx="305.5" cy="115.5" r="2.5" fill="#E60C21"/>
<path d="M67 208L135.5 178.5L189 150.5L246 124L272.5 88.5L307.5 67.5" stroke="#15A2FA"/>
<path d="M69 207.5L138 190.5L190.5 163.5L246 151.5L281 129.5L305.5 115" stroke="#E60C21"/>
</svg>
