<svg width="120" height="38" viewBox="0 0 120 38" fill="none" xmlns="http://www.w3.org/2000/svg">
<rect width="4.88176" height="37" fill="white"/>
<rect x="7.67456" y="8" width="4.88176" height="29" fill="white"/>
<rect x="15.3491" y="5" width="4.88176" height="32" fill="white"/>
<rect x="23.0237" y="18" width="4.88176" height="19" fill="white"/>
<rect x="30.6982" y="12" width="4.88176" height="25" fill="white"/>
<rect x="38.3728" y="35" width="4.88176" height="2" fill="white"/>
<rect x="46.0474" y="5" width="4.88176" height="32" fill="white"/>
<rect x="53.7219" y="16" width="4.88176" height="21" fill="white"/>
<rect x="61.3965" y="12" width="4.88176" height="25" fill="white"/>
<rect x="69.071" y="16" width="4.88176" height="21" fill="white"/>
<rect x="76.7456" y="5" width="4.88176" height="32" fill="white"/>
<rect x="84.4199" y="12" width="4.88176" height="25" fill="white"/>
<rect x="92.0945" y="26" width="4.88176" height="11" fill="white"/>
<rect x="99.769" y="32" width="4.88176" height="5" fill="white"/>
<rect x="107.444" y="18" width="4.88176" height="19" fill="white"/>
<rect x="115.118" y="26" width="4.88176" height="11" fill="white"/>
<line x1="-0.000637834" y1="37.2905" x2="119.998" y2="36.75" stroke="white" stroke-width="0.5"/>
</svg>
