<svg width="25" height="28" viewBox="0 0 25 28" fill="none" xmlns="http://www.w3.org/2000/svg">
<path id="Vector" d="M11.2249 13.3571C9.99244 13.3571 8.54818 12.3315 8.54818 11.0457L11.2249 11.3245V13.3571ZM10.8425 14.5995H12.7734L13.5287 15.3276C13.5287 15.7087 13.5287 16.316 13.5287 16.8613C12.824 17.2362 10.7982 17.5957 10.0556 17.3106C9.2055 16.9667 8.52614 14.4849 10.8425 14.5995ZM19.4256 9.59875L19.4003 9.57398L17.3777 9.83423C16.8499 9.9024 16.4612 10.3362 16.4612 10.8598V12.4679C17.3018 11.6406 18.5754 10.4384 19.4287 9.60186L19.4256 9.59875ZM19.7289 18.0883L25 23.2564L24.7156 23.5538C23.3883 24.9481 21.7735 26.0759 19.9627 26.8443C18.2183 27.5879 16.2969 28 14.2808 28C10.3369 28 6.76583 26.4322 4.18397 23.8978C1.59896 21.3633 0 17.8652 0 13.9984C0 10.1317 1.59896 6.63051 4.18397 4.09914C6.76899 1.56467 10.3369 0 14.2808 0C16.2969 0 18.2215 0.412078 19.9627 1.15569C21.7735 1.92718 23.3883 3.05499 24.7156 4.44616L25 4.74359L19.7384 9.90239C20.6232 11.0364 21.1478 12.4524 21.1478 13.9892C21.1478 15.526 20.617 16.9543 19.7289 18.0883ZM19.1696 9.26104L23.7929 4.72812C22.6015 3.55384 21.1889 2.59953 19.6183 1.93028C17.9845 1.23315 16.18 0.848951 14.2808 0.848951C10.577 0.848951 7.22095 2.32066 4.79394 4.70021C2.36694 7.07976 0.865804 10.3671 0.865804 14.0015C0.865804 17.6359 2.36694 20.9233 4.79394 23.3029C7.22095 25.6824 10.5739 27.1542 14.2808 27.1542C16.18 27.1542 17.9845 26.7669 19.6183 26.0728C21.1889 25.4036 22.6047 24.4493 23.7929 23.275L19.1537 18.7266C17.9655 19.8853 16.3222 20.7002 14.2808 20.7095C13.3453 20.7095 12.5521 20.474 11.9106 20.158C11.1901 19.7986 11.1649 18.739 12.0149 18.6305C12.805 18.5283 13.6266 18.2463 14.246 17.8869C14.7106 18.1534 15.8356 18.4973 16.4771 18.6336C17.185 18.361 17.8897 17.8838 18.3953 17.323C17.6495 17.6049 15.668 17.2393 14.9665 16.8675V15.3338L16.4549 13.8993H12.827V10.8846C12.827 10.3548 12.4226 9.91477 11.8853 9.85591L9.09812 9.56468C10.4096 8.09605 12.2835 7.25637 14.2744 7.25637C16.161 7.25637 17.8676 8.00309 19.1096 9.20836L19.1664 9.26414L19.1696 9.26104Z" fill="white"/>
</svg>
