<svg width="487" height="471" viewBox="0 0 487 471" fill="none" xmlns="http://www.w3.org/2000/svg">
<path d="M12.0084 14.715L13.9284 7.365H16.0434L13.1034 18H10.9734L8.54336 10.425L6.11336 18H3.95336L0.998359 7.365H3.18836L5.13836 14.685L7.49336 7.365H9.63836L12.0084 14.715ZM19.2135 13.665V18H17.2185V7.14H19.2135V11.235C19.6635 10.695 20.3285 10.425 21.2085 10.425C22.1085 10.425 22.7885 10.7 23.2485 11.25C23.7185 11.79 23.9535 12.49 23.9535 13.35V18H21.9585V13.695C21.9585 13.255 21.8435 12.9 21.6135 12.63C21.3935 12.36 21.0535 12.225 20.5935 12.225C20.1835 12.225 19.8535 12.36 19.6035 12.63C19.3635 12.9 19.2335 13.245 19.2135 13.665ZM27.3583 13.47H30.6583C30.6383 13.06 30.4883 12.715 30.2083 12.435C29.9383 12.155 29.5383 12.015 29.0083 12.015C28.5283 12.015 28.1383 12.165 27.8383 12.465C27.5383 12.765 27.3783 13.1 27.3583 13.47ZM30.8533 15.39L32.5183 15.885C32.3183 16.565 31.9233 17.125 31.3333 17.565C30.7533 18.005 30.0283 18.225 29.1583 18.225C28.0983 18.225 27.1983 17.87 26.4583 17.16C25.7183 16.44 25.3483 15.48 25.3483 14.28C25.3483 13.14 25.7083 12.21 26.4283 11.49C27.1483 10.76 27.9983 10.395 28.9783 10.395C30.1183 10.395 31.0083 10.735 31.6483 11.415C32.2983 12.095 32.6233 13.03 32.6233 14.22C32.6233 14.3 32.6183 14.39 32.6083 14.49C32.6083 14.59 32.6083 14.67 32.6083 14.73L32.5933 14.835H27.3133C27.3333 15.315 27.5233 15.715 27.8833 16.035C28.2433 16.355 28.6733 16.515 29.1733 16.515C30.0233 16.515 30.5833 16.14 30.8533 15.39ZM38.6193 10.59V12.6C38.4193 12.56 38.2193 12.54 38.0193 12.54C37.4493 12.54 36.9893 12.705 36.6393 13.035C36.2893 13.355 36.1143 13.885 36.1143 14.625V18H34.1193V10.62H36.0543V11.715C36.4143 10.945 37.1143 10.56 38.1543 10.56C38.2643 10.56 38.4193 10.57 38.6193 10.59ZM41.3294 13.47H44.6294C44.6094 13.06 44.4594 12.715 44.1794 12.435C43.9094 12.155 43.5094 12.015 42.9794 12.015C42.4994 12.015 42.1094 12.165 41.8094 12.465C41.5094 12.765 41.3494 13.1 41.3294 13.47ZM44.8244 15.39L46.4894 15.885C46.2894 16.565 45.8944 17.125 45.3044 17.565C44.7244 18.005 43.9994 18.225 43.1294 18.225C42.0694 18.225 41.1694 17.87 40.4294 17.16C39.6894 16.44 39.3194 15.48 39.3194 14.28C39.3194 13.14 39.6794 12.21 40.3994 11.49C41.1194 10.76 41.9694 10.395 42.9494 10.395C44.0894 10.395 44.9794 10.735 45.6194 11.415C46.2694 12.095 46.5944 13.03 46.5944 14.22C46.5944 14.3 46.5894 14.39 46.5794 14.49C46.5794 14.59 46.5794 14.67 46.5794 14.73L46.5644 14.835H41.2844C41.3044 15.315 41.4944 15.715 41.8544 16.035C42.2144 16.355 42.6444 16.515 43.1444 16.515C43.9944 16.515 44.5544 16.14 44.8244 15.39ZM4.43336 37.91H2.31836L4.05836 34.07L0.923359 27.62H3.15836L5.12336 31.94L6.93836 27.62H9.06836L4.43336 37.91ZM11.8304 32.855C12.2004 33.225 12.6454 33.41 13.1654 33.41C13.6854 33.41 14.1254 33.225 14.4854 32.855C14.8554 32.485 15.0404 31.97 15.0404 31.31C15.0404 30.65 14.8554 30.135 14.4854 29.765C14.1254 29.395 13.6854 29.21 13.1654 29.21C12.6454 29.21 12.2004 29.395 11.8304 29.765C11.4704 30.135 11.2904 30.65 11.2904 31.31C11.2904 31.97 11.4704 32.485 11.8304 32.855ZM10.3904 28.505C11.1304 27.765 12.0554 27.395 13.1654 27.395C14.2754 27.395 15.1954 27.765 15.9254 28.505C16.6654 29.245 17.0354 30.18 17.0354 31.31C17.0354 32.44 16.6654 33.375 15.9254 34.115C15.1954 34.855 14.2754 35.225 13.1654 35.225C12.0554 35.225 11.1304 34.855 10.3904 34.115C9.66035 33.375 9.29535 32.44 9.29535 31.31C9.29535 30.18 9.66035 29.245 10.3904 28.505ZM23.3358 35C23.2958 34.8 23.2758 34.535 23.2758 34.205C23.0858 34.535 22.8008 34.785 22.4208 34.955C22.0508 35.115 21.6558 35.195 21.2358 35.195C20.3658 35.195 19.6808 34.92 19.1808 34.37C18.6808 33.81 18.4308 33.115 18.4308 32.285V27.62H20.4258V31.88C20.4258 32.32 20.5408 32.68 20.7708 32.96C21.0008 33.23 21.3358 33.365 21.7758 33.365C22.2058 33.365 22.5458 33.235 22.7958 32.975C23.0458 32.705 23.1708 32.35 23.1708 31.91V27.62H25.1658V33.665C25.1658 34.135 25.1908 34.58 25.2408 35H23.3358ZM30.4009 32.99C30.4009 32.36 30.6059 31.855 31.0159 31.475C31.4259 31.095 31.9559 30.855 32.6059 30.755L34.4209 30.485C34.7909 30.435 34.9759 30.26 34.9759 29.96C34.9759 29.68 34.8659 29.45 34.6459 29.27C34.4359 29.09 34.1309 29 33.7309 29C33.3109 29 32.9759 29.115 32.7259 29.345C32.4859 29.575 32.3509 29.86 32.3209 30.2L30.5509 29.825C30.6209 29.185 30.9359 28.62 31.4959 28.13C32.0559 27.64 32.7959 27.395 33.7159 27.395C34.8159 27.395 35.6259 27.66 36.1459 28.19C36.6659 28.71 36.9259 29.38 36.9259 30.2V33.83C36.9259 34.27 36.9559 34.66 37.0159 35H35.1859C35.1359 34.78 35.1109 34.485 35.1109 34.115C34.6409 34.845 33.9159 35.21 32.9359 35.21C32.1759 35.21 31.5609 34.99 31.0909 34.55C30.6309 34.11 30.4009 33.59 30.4009 32.99ZM33.3559 33.725C33.8259 33.725 34.2109 33.595 34.5109 33.335C34.8209 33.065 34.9759 32.625 34.9759 32.015V31.685L33.3109 31.94C32.7009 32.03 32.3959 32.34 32.3959 32.87C32.3959 33.11 32.4809 33.315 32.6509 33.485C32.8209 33.645 33.0559 33.725 33.3559 33.725ZM43.3619 27.59V29.6C43.1619 29.56 42.9619 29.54 42.7619 29.54C42.1919 29.54 41.7319 29.705 41.3819 30.035C41.0319 30.355 40.8569 30.885 40.8569 31.625V35H38.8619V27.62H40.7969V28.715C41.1569 27.945 41.8569 27.56 42.8969 27.56C43.0069 27.56 43.1619 27.57 43.3619 27.59ZM46.072 30.47H49.372C49.352 30.06 49.202 29.715 48.922 29.435C48.652 29.155 48.252 29.015 47.722 29.015C47.242 29.015 46.852 29.165 46.552 29.465C46.252 29.765 46.092 30.1 46.072 30.47ZM49.567 32.39L51.232 32.885C51.032 33.565 50.637 34.125 50.047 34.565C49.467 35.005 48.742 35.225 47.872 35.225C46.812 35.225 45.912 34.87 45.172 34.16C44.432 33.44 44.062 32.48 44.062 31.28C44.062 30.14 44.422 29.21 45.142 28.49C45.862 27.76 46.712 27.395 47.692 27.395C48.832 27.395 49.722 27.735 50.362 28.415C51.012 29.095 51.337 30.03 51.337 31.22C51.337 31.3 51.332 31.39 51.322 31.49C51.322 31.59 51.322 31.67 51.322 31.73L51.307 31.835H46.027C46.047 32.315 46.237 32.715 46.597 33.035C46.957 33.355 47.387 33.515 47.887 33.515C48.737 33.515 49.297 33.14 49.567 32.39ZM55.9761 31.76H54.3561C54.3161 31.5 54.2961 31.295 54.2961 31.145C54.2961 30.295 54.6911 29.57 55.4811 28.97L56.2011 28.43C56.6311 28.11 56.8461 27.715 56.8461 27.245C56.8461 26.875 56.7161 26.56 56.4561 26.3C56.1961 26.03 55.8261 25.895 55.3461 25.895C54.8461 25.895 54.4661 26.065 54.2061 26.405C53.9461 26.735 53.8161 27.13 53.8161 27.59C53.8161 27.79 53.8361 27.95 53.8761 28.07L51.9861 27.995C51.9361 27.825 51.9111 27.6 51.9111 27.32C51.9111 26.46 52.2161 25.715 52.8261 25.085C53.4461 24.455 54.2861 24.14 55.3461 24.14C56.4461 24.14 57.3111 24.435 57.9411 25.025C58.5711 25.615 58.8861 26.315 58.8861 27.125C58.8861 28.195 58.3911 29.08 57.4011 29.78L56.7861 30.215C56.2461 30.605 55.9761 31.09 55.9761 31.67V31.76ZM54.3561 34.775C54.1261 34.545 54.0111 34.265 54.0111 33.935C54.0111 33.605 54.1261 33.325 54.3561 33.095C54.5861 32.855 54.8661 32.735 55.1961 32.735C55.5261 32.735 55.8061 32.855 56.0361 33.095C56.2761 33.325 56.3961 33.605 56.3961 33.935C56.3961 34.265 56.2761 34.545 56.0361 34.775C55.8061 35.005 55.5261 35.12 55.1961 35.12C54.8661 35.12 54.5861 35.005 54.3561 34.775Z" fill="#121212"/>
<path d="M393.027 225C516.716 225 517.265 20.9297 393.027 20.9297C268.789 20.9297 103 20 103 20" stroke="#D1D5E4" stroke-width="2.01877" stroke-dasharray="10.09 10.09"/>
<path d="M393 225C393 225 227.212 225.93 102.973 225.93C-21.2648 225.93 -20.7158 430 102.973 430L393 430" stroke="#D1D5E4" stroke-width="2.01877" stroke-dasharray="10.09 10.09"/>
<path d="M86.8747 44.328H88.8267C89.36 44.328 89.7814 44.4693 90.0907 44.752C90.4 45.0347 90.5547 45.4027 90.5547 45.856C90.5547 46.1493 90.4774 46.4053 90.3227 46.624C90.168 46.8373 89.9654 46.9893 89.7147 47.08C90.0187 47.16 90.264 47.3227 90.4507 47.568C90.6374 47.8133 90.7307 48.1013 90.7307 48.432C90.7307 48.8907 90.568 49.2667 90.2427 49.56C89.9174 49.8533 89.4934 50 88.9707 50H86.8747V44.328ZM87.8267 46.728H88.6987C88.976 46.728 89.1947 46.656 89.3547 46.512C89.5147 46.368 89.5947 46.176 89.5947 45.936C89.5947 45.6907 89.512 45.4987 89.3467 45.36C89.1867 45.216 88.9627 45.144 88.6747 45.144H87.8267V46.728ZM87.8267 49.184H88.8027C89.0907 49.184 89.32 49.112 89.4907 48.968C89.6667 48.8187 89.7547 48.6187 89.7547 48.368C89.7547 48.1173 89.672 47.9173 89.5067 47.768C89.3467 47.6133 89.1227 47.536 88.8347 47.536H87.8267V49.184ZM95.1981 50H91.6941V44.328H95.1981V45.224H92.6541V46.728H94.9581V47.6H92.6541V49.104H95.1981V50ZM101.319 50H100.543L100.471 49.28C100.332 49.5147 100.114 49.7147 99.8149 49.88C99.5162 50.04 99.1562 50.12 98.7349 50.12C97.9615 50.12 97.3029 49.8533 96.7589 49.32C96.2149 48.7813 95.9429 48.0613 95.9429 47.16C95.9429 46.5627 96.0789 46.0347 96.3509 45.576C96.6282 45.1173 96.9802 44.776 97.4069 44.552C97.8335 44.3227 98.2975 44.208 98.7989 44.208C99.4549 44.208 100.004 44.3707 100.447 44.696C100.895 45.0213 101.199 45.4347 101.359 45.936L100.455 46.28C100.354 45.9387 100.159 45.656 99.8709 45.432C99.5829 45.208 99.2255 45.096 98.7989 45.096C98.2922 45.096 97.8522 45.2747 97.4789 45.632C97.1055 45.9893 96.9189 46.4987 96.9189 47.16C96.9189 47.816 97.1002 48.328 97.4629 48.696C97.8255 49.0587 98.2682 49.24 98.7909 49.24C99.3029 49.24 99.6922 49.1067 99.9589 48.84C100.231 48.568 100.383 48.2773 100.415 47.968H98.5429V47.128H101.319V50ZM103.418 50H102.442V44.328H103.418V50ZM109.498 50H108.498L105.698 45.704V50H104.738V44.328H105.962L108.538 48.352V44.328H109.498V50ZM115.575 50H114.575L111.775 45.704V50H110.815V44.328H112.039L114.615 48.352V44.328H115.575V50ZM120.396 50H116.892V44.328H120.396V45.224H117.852V46.728H120.156V47.6H117.852V49.104H120.396V50ZM124.373 50L123.181 47.76H122.477V50H121.509V44.328H123.685C124.218 44.328 124.647 44.4933 124.973 44.824C125.298 45.1493 125.461 45.5573 125.461 46.048C125.461 46.4533 125.346 46.8 125.117 47.088C124.887 47.376 124.575 47.568 124.181 47.664L125.461 50H124.373ZM122.477 46.912H123.509C123.802 46.912 124.037 46.8347 124.213 46.68C124.394 46.52 124.485 46.3093 124.485 46.048C124.485 45.7813 124.394 45.5707 124.213 45.416C124.037 45.256 123.802 45.176 123.509 45.176H122.477V46.912Z" fill="#050A41"/>
<path d="M90.7514 57.648L90.3114 56.936L91.7434 55.656H89.3834V54.816H92.9834V55.616L91.5754 56.848C91.9914 56.8587 92.354 57.0053 92.6634 57.288C92.9727 57.5707 93.1274 57.9493 93.1274 58.424C93.1274 58.8933 92.9514 59.2933 92.5994 59.624C92.2474 59.9547 91.7754 60.12 91.1834 60.12C90.6074 60.12 90.1407 59.9627 89.7834 59.648C89.4314 59.328 89.2394 58.9387 89.2074 58.48L90.1434 58.288C90.154 58.5867 90.2554 58.8293 90.4474 59.016C90.6447 59.2027 90.8874 59.296 91.1754 59.296C91.4794 59.296 91.7194 59.2107 91.8954 59.04C92.0714 58.8693 92.1594 58.6613 92.1594 58.416C92.1594 58.1387 92.066 57.928 91.8794 57.784C91.698 57.6347 91.4847 57.56 91.2394 57.56C91.0314 57.56 90.8687 57.5893 90.7514 57.648ZM102.23 60H101.278V55.824L99.51 60H98.678L96.926 55.84V60H95.99V54.328H97.27L99.11 58.656L100.926 54.328H102.23V60ZM104.392 58.96C104.605 59.1787 104.864 59.288 105.168 59.288C105.472 59.288 105.728 59.1787 105.936 58.96C106.149 58.7413 106.256 58.4373 106.256 58.048C106.256 57.664 106.149 57.3653 105.936 57.152C105.728 56.9333 105.472 56.824 105.168 56.824C104.864 56.824 104.605 56.9333 104.392 57.152C104.184 57.3653 104.08 57.664 104.08 58.048C104.08 58.432 104.184 58.736 104.392 58.96ZM105.168 55.984C105.755 55.984 106.237 56.1787 106.616 56.568C107 56.9573 107.192 57.4507 107.192 58.048C107.192 58.6453 107 59.1413 106.616 59.536C106.237 59.9253 105.755 60.12 105.168 60.12C104.587 60.12 104.104 59.9253 103.72 59.536C103.341 59.1413 103.152 58.6453 103.152 58.048C103.152 57.4507 103.341 56.9573 103.72 56.568C104.104 56.1787 104.587 55.984 105.168 55.984ZM108.977 57.752V60H108.049V56.104H108.953V56.624C109.075 56.4107 109.238 56.2533 109.441 56.152C109.649 56.0453 109.87 55.992 110.105 55.992C110.563 55.992 110.913 56.136 111.153 56.424C111.393 56.712 111.513 57.0827 111.513 57.536V60H110.585V57.696C110.585 57.4347 110.521 57.2267 110.393 57.072C110.265 56.912 110.062 56.832 109.785 56.832C109.529 56.832 109.329 56.92 109.185 57.096C109.046 57.2667 108.977 57.4853 108.977 57.752ZM113.778 54.912V56.104H114.586V56.928H113.778V58.736C113.778 58.9067 113.818 59.032 113.898 59.112C113.978 59.1867 114.104 59.224 114.274 59.224C114.381 59.224 114.488 59.2133 114.594 59.192V59.96C114.456 60.0187 114.266 60.048 114.026 60.048C113.664 60.048 113.378 59.9467 113.17 59.744C112.962 59.536 112.858 59.2507 112.858 58.888V56.928H112.138V56.104H112.338C112.536 56.104 112.685 56.048 112.786 55.936C112.888 55.824 112.938 55.6773 112.938 55.496V54.912H113.778ZM116.319 57.712V60H115.391V54.208H116.319V56.48C116.569 56.1547 116.94 55.992 117.431 55.992C117.889 55.992 118.241 56.136 118.487 56.424C118.732 56.712 118.855 57.0827 118.855 57.536V60H117.927V57.696C117.927 57.4347 117.863 57.2267 117.735 57.072C117.607 56.912 117.404 56.832 117.127 56.832C116.881 56.832 116.687 56.9147 116.543 57.08C116.404 57.2453 116.329 57.456 116.319 57.712ZM119.6 58.944L120.408 58.72C120.424 58.9067 120.502 59.064 120.64 59.192C120.779 59.32 120.966 59.384 121.2 59.384C121.382 59.384 121.523 59.3413 121.624 59.256C121.731 59.1707 121.784 59.064 121.784 58.936C121.784 58.712 121.632 58.568 121.328 58.504L120.752 58.376C120.416 58.3013 120.158 58.1627 119.976 57.96C119.795 57.7573 119.704 57.5173 119.704 57.24C119.704 56.8987 119.843 56.6053 120.12 56.36C120.398 56.1093 120.736 55.984 121.136 55.984C121.392 55.984 121.619 56.0213 121.816 56.096C122.014 56.1707 122.166 56.2693 122.272 56.392C122.384 56.5093 122.47 56.624 122.528 56.736C122.587 56.848 122.624 56.96 122.64 57.072L121.856 57.296C121.835 57.1467 121.766 57.0133 121.648 56.896C121.536 56.7733 121.366 56.712 121.136 56.712C120.976 56.712 120.843 56.7573 120.736 56.848C120.63 56.9333 120.576 57.0373 120.576 57.16C120.576 57.3787 120.707 57.5147 120.968 57.568L121.56 57.688C121.923 57.768 122.2 57.912 122.392 58.12C122.584 58.328 122.68 58.5787 122.68 58.872C122.68 59.1973 122.55 59.488 122.288 59.744C122.032 59.9947 121.672 60.12 121.208 60.12C120.942 60.12 120.702 60.08 120.488 60C120.28 59.92 120.115 59.8187 119.992 59.696C119.875 59.568 119.782 59.4427 119.712 59.32C119.648 59.192 119.611 59.0667 119.6 58.944Z" fill="#9199B1"/>
<ellipse cx="106.5" cy="19.5" rx="17.5" ry="17.5" fill="#74C60D"/>
<path d="M106.5 37.9149C116.67 37.9149 124.915 29.6703 124.915 19.5C124.915 9.32974 116.67 1.08511 106.5 1.08511C96.3297 1.08511 88.0851 9.32974 88.0851 19.5C88.0851 29.6703 96.3297 37.9149 106.5 37.9149Z" stroke="#74C60D" stroke-opacity="0.35" stroke-width="1.82978"/>
<path d="M104.463 25.3404C104.323 25.4814 104.131 25.5602 103.933 25.5602C103.734 25.5602 103.543 25.4814 103.402 25.3404L99.1678 21.1052C98.7283 20.6657 98.7283 19.9532 99.1678 19.5144L99.698 18.9842C100.138 18.5447 100.849 18.5447 101.289 18.9842L103.933 21.6279L111.076 14.4842C111.516 14.0447 112.228 14.0447 112.667 14.4842L113.197 15.0144C113.637 15.4539 113.637 16.1664 113.197 16.6052L104.463 25.3404Z" fill="white"/>
<path d="M196.507 48H195.507L192.707 43.704V48H191.747V42.328H192.971L195.547 46.352V42.328H196.507V48ZM198.377 45.624H200.289C200.278 45.3787 200.19 45.1733 200.025 45.008C199.865 44.8427 199.633 44.76 199.329 44.76C199.052 44.76 198.828 44.848 198.657 45.024C198.486 45.1947 198.393 45.3947 198.377 45.624ZM200.393 46.64L201.177 46.888C201.065 47.2453 200.854 47.5413 200.545 47.776C200.241 48.0053 199.865 48.12 199.417 48.12C198.862 48.12 198.39 47.9307 198.001 47.552C197.617 47.1733 197.425 46.6667 197.425 46.032C197.425 45.4347 197.612 44.944 197.985 44.56C198.364 44.176 198.809 43.984 199.321 43.984C199.918 43.984 200.385 44.168 200.721 44.536C201.057 44.8987 201.225 45.3893 201.225 46.008C201.225 46.1733 201.217 46.272 201.201 46.304H198.353C198.364 46.5973 198.47 46.84 198.673 47.032C198.881 47.224 199.129 47.32 199.417 47.32C199.918 47.32 200.244 47.0933 200.393 46.64ZM204.225 44.104H205.185L206.105 46.8L206.881 44.104H207.825L206.577 48H205.649L204.681 45.2L203.737 48H202.785L201.521 44.104H202.513L203.305 46.8L204.225 44.104Z" fill="#050A41"/>
<path d="M341.752 251.936H342.752C343.056 251.936 343.294 251.859 343.464 251.704C343.64 251.544 343.728 251.331 343.728 251.064C343.728 250.792 343.64 250.576 343.464 250.416C343.294 250.256 343.056 250.176 342.752 250.176H341.752V251.936ZM342.896 252.784H341.752V255H340.792V249.328H342.896C343.435 249.328 343.87 249.491 344.2 249.816C344.536 250.141 344.704 250.555 344.704 251.056C344.704 251.563 344.536 251.979 344.2 252.304C343.87 252.624 343.435 252.784 342.896 252.784ZM348.413 255L347.221 252.76H346.517V255H345.549V249.328H347.725C348.259 249.328 348.688 249.493 349.013 249.824C349.339 250.149 349.501 250.557 349.501 251.048C349.501 251.453 349.387 251.8 349.157 252.088C348.928 252.376 348.616 252.568 348.221 252.664L349.501 255H348.413ZM346.517 251.912H347.549C347.843 251.912 348.077 251.835 348.253 251.68C348.435 251.52 348.525 251.309 348.525 251.048C348.525 250.781 348.435 250.571 348.253 250.416C348.077 250.256 347.843 250.176 347.549 250.176H346.517V251.912ZM353.99 255H350.486V249.328H353.99V250.224H351.446V251.728H353.75V252.6H351.446V254.104H353.99V255ZM357.015 253.072H354.759V252.248H357.015V253.072ZM358.991 255H358.015V249.328H358.991V255ZM365.071 255H364.071L361.271 250.704V255H360.311V249.328H361.535L364.111 253.352V249.328H365.071V255ZM370.46 250.232H368.612V255H367.652V250.232H365.812V249.328H370.46V250.232ZM374.712 255H371.208V249.328H374.712V250.224H372.168V251.728H374.472V252.6H372.168V254.104H374.712V255ZM378.688 255L377.496 252.76H376.792V255H375.824V249.328H378C378.533 249.328 378.963 249.493 379.288 249.824C379.613 250.149 379.776 250.557 379.776 251.048C379.776 251.453 379.661 251.8 379.432 252.088C379.203 252.376 378.891 252.568 378.496 252.664L379.776 255H378.688ZM376.792 251.912H377.824C378.117 251.912 378.352 251.835 378.528 251.68C378.709 251.52 378.8 251.309 378.8 251.048C378.8 250.781 378.709 250.571 378.528 250.416C378.352 250.256 378.117 250.176 377.824 250.176H376.792V251.912ZM387.001 255H386.049V250.824L384.281 255H383.449L381.697 250.84V255H380.761V249.328H382.041L383.881 253.656L385.697 249.328H387.001V255ZM391.826 255H388.322V249.328H391.826V250.224H389.282V251.728H391.586V252.6H389.282V254.104H391.826V255ZM393.898 254.12H394.906C395.429 254.12 395.858 253.955 396.194 253.624C396.536 253.288 396.706 252.805 396.706 252.176C396.706 251.541 396.538 251.056 396.202 250.72C395.866 250.379 395.437 250.208 394.914 250.208H393.898V254.12ZM394.938 255H392.938V249.328H394.946C395.746 249.328 396.405 249.581 396.922 250.088C397.445 250.595 397.706 251.291 397.706 252.176C397.706 253.056 397.445 253.747 396.922 254.248C396.4 254.749 395.738 255 394.938 255ZM399.648 255H398.672V249.328H399.648V255ZM404.848 255L404.312 253.576H401.912L401.384 255H400.368L402.576 249.328H403.688L405.896 255H404.848ZM403.112 250.368L402.248 252.688H403.976L403.112 250.368ZM410.164 250.232H408.316V255H407.356V250.232H405.516V249.328H410.164V250.232ZM414.415 255H410.911V249.328H414.415V250.224H411.871V251.728H414.175V252.6H411.871V254.104H414.415V255Z" fill="#050A41"/>
<path d="M362.251 262.648L361.811 261.936L363.243 260.656H360.883V259.816H364.483V260.616L363.075 261.848C363.491 261.859 363.854 262.005 364.163 262.288C364.473 262.571 364.627 262.949 364.627 263.424C364.627 263.893 364.451 264.293 364.099 264.624C363.747 264.955 363.275 265.12 362.683 265.12C362.107 265.12 361.641 264.963 361.283 264.648C360.931 264.328 360.739 263.939 360.707 263.48L361.643 263.288C361.654 263.587 361.755 263.829 361.947 264.016C362.145 264.203 362.387 264.296 362.675 264.296C362.979 264.296 363.219 264.211 363.395 264.04C363.571 263.869 363.659 263.661 363.659 263.416C363.659 263.139 363.566 262.928 363.379 262.784C363.198 262.635 362.985 262.56 362.739 262.56C362.531 262.56 362.369 262.589 362.251 262.648ZM373.73 265H372.778V260.824L371.01 265H370.178L368.426 260.84V265H367.49V259.328H368.77L370.61 263.656L372.426 259.328H373.73V265ZM375.892 263.96C376.105 264.179 376.364 264.288 376.668 264.288C376.972 264.288 377.228 264.179 377.436 263.96C377.649 263.741 377.756 263.437 377.756 263.048C377.756 262.664 377.649 262.365 377.436 262.152C377.228 261.933 376.972 261.824 376.668 261.824C376.364 261.824 376.105 261.933 375.892 262.152C375.684 262.365 375.58 262.664 375.58 263.048C375.58 263.432 375.684 263.736 375.892 263.96ZM376.668 260.984C377.255 260.984 377.737 261.179 378.116 261.568C378.5 261.957 378.692 262.451 378.692 263.048C378.692 263.645 378.5 264.141 378.116 264.536C377.737 264.925 377.255 265.12 376.668 265.12C376.087 265.12 375.604 264.925 375.22 264.536C374.841 264.141 374.652 263.645 374.652 263.048C374.652 262.451 374.841 261.957 375.22 261.568C375.604 261.179 376.087 260.984 376.668 260.984ZM380.477 262.752V265H379.549V261.104H380.453V261.624C380.575 261.411 380.738 261.253 380.941 261.152C381.149 261.045 381.37 260.992 381.605 260.992C382.063 260.992 382.413 261.136 382.653 261.424C382.893 261.712 383.013 262.083 383.013 262.536V265H382.085V262.696C382.085 262.435 382.021 262.227 381.893 262.072C381.765 261.912 381.562 261.832 381.285 261.832C381.029 261.832 380.829 261.92 380.685 262.096C380.546 262.267 380.477 262.485 380.477 262.752ZM385.278 259.912V261.104H386.086V261.928H385.278V263.736C385.278 263.907 385.318 264.032 385.398 264.112C385.478 264.187 385.604 264.224 385.774 264.224C385.881 264.224 385.988 264.213 386.094 264.192V264.96C385.956 265.019 385.766 265.048 385.526 265.048C385.164 265.048 384.878 264.947 384.67 264.744C384.462 264.536 384.358 264.251 384.358 263.888V261.928H383.638V261.104H383.838C384.036 261.104 384.185 261.048 384.286 260.936C384.388 260.824 384.438 260.677 384.438 260.496V259.912H385.278ZM387.819 262.712V265H386.891V259.208H387.819V261.48C388.069 261.155 388.44 260.992 388.931 260.992C389.389 260.992 389.741 261.136 389.987 261.424C390.232 261.712 390.355 262.083 390.355 262.536V265H389.427V262.696C389.427 262.435 389.363 262.227 389.235 262.072C389.107 261.912 388.904 261.832 388.627 261.832C388.381 261.832 388.187 261.915 388.043 262.08C387.904 262.245 387.829 262.456 387.819 262.712ZM391.1 263.944L391.908 263.72C391.924 263.907 392.002 264.064 392.14 264.192C392.279 264.32 392.466 264.384 392.7 264.384C392.882 264.384 393.023 264.341 393.124 264.256C393.231 264.171 393.284 264.064 393.284 263.936C393.284 263.712 393.132 263.568 392.828 263.504L392.252 263.376C391.916 263.301 391.658 263.163 391.476 262.96C391.295 262.757 391.204 262.517 391.204 262.24C391.204 261.899 391.343 261.605 391.62 261.36C391.898 261.109 392.236 260.984 392.636 260.984C392.892 260.984 393.119 261.021 393.316 261.096C393.514 261.171 393.666 261.269 393.772 261.392C393.884 261.509 393.97 261.624 394.028 261.736C394.087 261.848 394.124 261.96 394.14 262.072L393.356 262.296C393.335 262.147 393.266 262.013 393.148 261.896C393.036 261.773 392.866 261.712 392.636 261.712C392.476 261.712 392.343 261.757 392.236 261.848C392.13 261.933 392.076 262.037 392.076 262.16C392.076 262.379 392.207 262.515 392.468 262.568L393.06 262.688C393.423 262.768 393.7 262.912 393.892 263.12C394.084 263.328 394.18 263.579 394.18 263.872C394.18 264.197 394.05 264.488 393.788 264.744C393.532 264.995 393.172 265.12 392.708 265.12C392.442 265.12 392.202 265.08 391.988 265C391.78 264.92 391.615 264.819 391.492 264.696C391.375 264.568 391.282 264.443 391.212 264.32C391.148 264.192 391.111 264.067 391.1 263.944Z" fill="#9199B1"/>
<circle cx="377.5" cy="224.5" r="17.5" fill="#9199B1"/>
<path d="M376.299 226.4L375.079 224.48L378.479 221.56H372.799V219.18H381.979V221.4L378.619 224.2C379.646 224.24 380.526 224.626 381.259 225.36C382.006 226.08 382.379 227.013 382.379 228.16C382.379 229.333 381.926 230.346 381.019 231.2C380.112 232.04 378.906 232.46 377.399 232.46C375.946 232.46 374.766 232.06 373.859 231.26C372.952 230.446 372.459 229.466 372.379 228.32L375.039 227.8C375.066 228.466 375.292 229.013 375.719 229.44C376.159 229.866 376.719 230.08 377.399 230.08C378.066 230.08 378.599 229.893 378.999 229.52C379.399 229.146 379.599 228.68 379.599 228.12C379.599 227.52 379.399 227.053 378.999 226.72C378.612 226.373 378.106 226.2 377.479 226.2C377.066 226.2 376.672 226.266 376.299 226.4Z" fill="white"/>
<path d="M355.29 50H351.786V44.328H355.29V45.224H352.746V46.728H355.05V47.6H352.746V49.104H355.29V50ZM359.962 50H356.402V44.328H357.362V49.088H359.962V50ZM364.304 50H360.8V44.328H364.304V45.224H361.76V46.728H364.064V47.6H361.76V49.104H364.304V50ZM371.656 50H370.704V45.824L368.936 50H368.104L366.352 45.84V50H365.416V44.328H366.696L368.536 48.656L370.352 44.328H371.656V50ZM376.481 50H372.977V44.328H376.481V45.224H373.937V46.728H376.241V47.6H373.937V49.104H376.481V50ZM382.354 50H381.354L378.554 45.704V50H377.594V44.328H378.818L381.394 48.352V44.328H382.354V50ZM387.743 45.232H385.895V50H384.935V45.232H383.095V44.328H387.743V45.232ZM391.847 50L391.311 48.576H388.911L388.383 50H387.367L389.575 44.328H390.687L392.895 50H391.847ZM390.111 45.368L389.247 47.688H390.975L390.111 45.368ZM396.478 50L395.286 47.76H394.582V50H393.614V44.328H395.79C396.324 44.328 396.753 44.4933 397.078 44.824C397.404 45.1493 397.566 45.5573 397.566 46.048C397.566 46.4533 397.452 46.8 397.222 47.088C396.993 47.376 396.681 47.568 396.286 47.664L397.566 50H396.478ZM394.582 46.912H395.614C395.908 46.912 396.142 46.8347 396.318 46.68C396.5 46.52 396.59 46.3093 396.59 46.048C396.59 45.7813 396.5 45.5707 396.318 45.416C396.142 45.256 395.908 45.176 395.614 45.176H394.582V46.912ZM399.857 47.6L397.873 44.328H399.009L400.369 46.704L401.737 44.328H402.817L400.817 47.6V50H399.857V47.6Z" fill="#050A41"/>
<path d="M361.751 57.648L361.311 56.936L362.743 55.656H360.383V54.816H363.983V55.616L362.575 56.848C362.991 56.8587 363.354 57.0053 363.663 57.288C363.973 57.5707 364.127 57.9493 364.127 58.424C364.127 58.8933 363.951 59.2933 363.599 59.624C363.247 59.9547 362.775 60.12 362.183 60.12C361.607 60.12 361.141 59.9627 360.783 59.648C360.431 59.328 360.239 58.9387 360.207 58.48L361.143 58.288C361.154 58.5867 361.255 58.8293 361.447 59.016C361.645 59.2027 361.887 59.296 362.175 59.296C362.479 59.296 362.719 59.2107 362.895 59.04C363.071 58.8693 363.159 58.6613 363.159 58.416C363.159 58.1387 363.066 57.928 362.879 57.784C362.698 57.6347 362.485 57.56 362.239 57.56C362.031 57.56 361.869 57.5893 361.751 57.648ZM373.23 60H372.278V55.824L370.51 60H369.678L367.926 55.84V60H366.99V54.328H368.27L370.11 58.656L371.926 54.328H373.23V60ZM375.392 58.96C375.605 59.1787 375.864 59.288 376.168 59.288C376.472 59.288 376.728 59.1787 376.936 58.96C377.149 58.7413 377.256 58.4373 377.256 58.048C377.256 57.664 377.149 57.3653 376.936 57.152C376.728 56.9333 376.472 56.824 376.168 56.824C375.864 56.824 375.605 56.9333 375.392 57.152C375.184 57.3653 375.08 57.664 375.08 58.048C375.08 58.432 375.184 58.736 375.392 58.96ZM376.168 55.984C376.755 55.984 377.237 56.1787 377.616 56.568C378 56.9573 378.192 57.4507 378.192 58.048C378.192 58.6453 378 59.1413 377.616 59.536C377.237 59.9253 376.755 60.12 376.168 60.12C375.587 60.12 375.104 59.9253 374.72 59.536C374.341 59.1413 374.152 58.6453 374.152 58.048C374.152 57.4507 374.341 56.9573 374.72 56.568C375.104 56.1787 375.587 55.984 376.168 55.984ZM379.977 57.752V60H379.049V56.104H379.953V56.624C380.075 56.4107 380.238 56.2533 380.441 56.152C380.649 56.0453 380.87 55.992 381.105 55.992C381.563 55.992 381.913 56.136 382.153 56.424C382.393 56.712 382.513 57.0827 382.513 57.536V60H381.585V57.696C381.585 57.4347 381.521 57.2267 381.393 57.072C381.265 56.912 381.062 56.832 380.785 56.832C380.529 56.832 380.329 56.92 380.185 57.096C380.046 57.2667 379.977 57.4853 379.977 57.752ZM384.778 54.912V56.104H385.586V56.928H384.778V58.736C384.778 58.9067 384.818 59.032 384.898 59.112C384.978 59.1867 385.104 59.224 385.274 59.224C385.381 59.224 385.488 59.2133 385.594 59.192V59.96C385.456 60.0187 385.266 60.048 385.026 60.048C384.664 60.048 384.378 59.9467 384.17 59.744C383.962 59.536 383.858 59.2507 383.858 58.888V56.928H383.138V56.104H383.338C383.536 56.104 383.685 56.048 383.786 55.936C383.888 55.824 383.938 55.6773 383.938 55.496V54.912H384.778ZM387.319 57.712V60H386.391V54.208H387.319V56.48C387.569 56.1547 387.94 55.992 388.431 55.992C388.889 55.992 389.241 56.136 389.487 56.424C389.732 56.712 389.855 57.0827 389.855 57.536V60H388.927V57.696C388.927 57.4347 388.863 57.2267 388.735 57.072C388.607 56.912 388.404 56.832 388.127 56.832C387.881 56.832 387.687 56.9147 387.543 57.08C387.404 57.2453 387.329 57.456 387.319 57.712ZM390.6 58.944L391.408 58.72C391.424 58.9067 391.502 59.064 391.64 59.192C391.779 59.32 391.966 59.384 392.2 59.384C392.382 59.384 392.523 59.3413 392.624 59.256C392.731 59.1707 392.784 59.064 392.784 58.936C392.784 58.712 392.632 58.568 392.328 58.504L391.752 58.376C391.416 58.3013 391.158 58.1627 390.976 57.96C390.795 57.7573 390.704 57.5173 390.704 57.24C390.704 56.8987 390.843 56.6053 391.12 56.36C391.398 56.1093 391.736 55.984 392.136 55.984C392.392 55.984 392.619 56.0213 392.816 56.096C393.014 56.1707 393.166 56.2693 393.272 56.392C393.384 56.5093 393.47 56.624 393.528 56.736C393.587 56.848 393.624 56.96 393.64 57.072L392.856 57.296C392.835 57.1467 392.766 57.0133 392.648 56.896C392.536 56.7733 392.366 56.712 392.136 56.712C391.976 56.712 391.843 56.7573 391.736 56.848C391.63 56.9333 391.576 57.0373 391.576 57.16C391.576 57.3787 391.707 57.5147 391.968 57.568L392.56 57.688C392.923 57.768 393.2 57.912 393.392 58.12C393.584 58.328 393.68 58.5787 393.68 58.872C393.68 59.1973 393.55 59.488 393.288 59.744C393.032 59.9947 392.672 60.12 392.208 60.12C391.942 60.12 391.702 60.08 391.488 60C391.28 59.92 391.115 59.8187 390.992 59.696C390.875 59.568 390.782 59.4427 390.712 59.32C390.648 59.192 390.611 59.0667 390.6 58.944Z" fill="#9199B1"/>
<circle cx="377.5" cy="19.5" r="17.5" fill="#9199B1"/>
<path d="M375.479 18.1997L372.859 18.1197C372.792 17.8263 372.759 17.5263 372.759 17.2197C372.759 16.0197 373.186 14.9997 374.039 14.1597C374.892 13.3063 376.046 12.8797 377.499 12.8797C378.912 12.8797 380.046 13.2863 380.899 14.0997C381.752 14.8997 382.179 15.8863 382.179 17.0597C382.179 18.713 381.339 20.053 379.659 21.0797L377.159 22.5997C376.572 22.973 376.199 23.3663 376.039 23.7797H382.259V26.1597H372.659C372.672 24.9463 372.906 23.8863 373.359 22.9797C373.826 22.073 374.612 21.2863 375.719 20.6197L377.859 19.3397C378.886 18.7263 379.399 17.9797 379.399 17.0997C379.399 16.6063 379.226 16.1863 378.879 15.8397C378.546 15.493 378.066 15.3197 377.439 15.3197C376.772 15.3197 376.259 15.5197 375.899 15.9197C375.552 16.3197 375.379 16.8397 375.379 17.4797C375.379 17.7197 375.412 17.9597 375.479 18.1997Z" fill="white"/>
<path d="M78.8799 255H77.9039V249.328H78.8799V255ZM84.9598 255H83.9598L81.1598 250.704V255H80.1998V249.328H81.4238L83.9998 253.352V249.328H84.9598V255ZM90.349 250.232H88.501V255H87.541V250.232H85.701V249.328H90.349V250.232ZM94.6004 255H91.0964V249.328H94.6004V250.224H92.0564V251.728H94.3604V252.6H92.0564V254.104H94.6004V255ZM98.5767 255L97.3847 252.76H96.6807V255H95.7127V249.328H97.8887C98.422 249.328 98.8513 249.493 99.1767 249.824C99.502 250.149 99.6647 250.557 99.6647 251.048C99.6647 251.453 99.55 251.8 99.3207 252.088C99.0913 252.376 98.7793 252.568 98.3847 252.664L99.6647 255H98.5767ZM96.6807 251.912H97.7127C98.006 251.912 98.2407 251.835 98.4167 251.68C98.598 251.52 98.6887 251.309 98.6887 251.048C98.6887 250.781 98.598 250.571 98.4167 250.416C98.2407 250.256 98.006 250.176 97.7127 250.176H96.6807V251.912ZM106.889 255H105.937V250.824L104.169 255H103.337L101.585 250.84V255H100.649V249.328H101.929L103.769 253.656L105.585 249.328H106.889V255ZM111.715 255H108.211V249.328H111.715V250.224H109.171V251.728H111.475V252.6H109.171V254.104H111.715V255ZM113.787 254.12H114.795C115.318 254.12 115.747 253.955 116.083 253.624C116.424 253.288 116.595 252.805 116.595 252.176C116.595 251.541 116.427 251.056 116.091 250.72C115.755 250.379 115.326 250.208 114.803 250.208H113.787V254.12ZM114.827 255H112.827V249.328H114.835C115.635 249.328 116.294 249.581 116.811 250.088C117.334 250.595 117.595 251.291 117.595 252.176C117.595 253.056 117.334 253.747 116.811 254.248C116.288 254.749 115.627 255 114.827 255ZM119.536 255H118.56V249.328H119.536V255ZM124.736 255L124.2 253.576H121.8L121.272 255H120.256L122.464 249.328H123.576L125.784 255H124.736ZM123 250.368L122.136 252.688H123.864L123 250.368ZM130.052 250.232H128.204V255H127.244V250.232H125.404V249.328H130.052V250.232ZM134.304 255H130.8V249.328H134.304V250.224H131.76V251.728H134.064V252.6H131.76V254.104H134.304V255Z" fill="#050A41"/>
<path d="M90.7514 262.648L90.3114 261.936L91.7434 260.656H89.3834V259.816H92.9834V260.616L91.5754 261.848C91.9914 261.859 92.354 262.005 92.6634 262.288C92.9727 262.571 93.1274 262.949 93.1274 263.424C93.1274 263.893 92.9514 264.293 92.5994 264.624C92.2474 264.955 91.7754 265.12 91.1834 265.12C90.6074 265.12 90.1407 264.963 89.7834 264.648C89.4314 264.328 89.2394 263.939 89.2074 263.48L90.1434 263.288C90.154 263.587 90.2554 263.829 90.4474 264.016C90.6447 264.203 90.8874 264.296 91.1754 264.296C91.4794 264.296 91.7194 264.211 91.8954 264.04C92.0714 263.869 92.1594 263.661 92.1594 263.416C92.1594 263.139 92.066 262.928 91.8794 262.784C91.698 262.635 91.4847 262.56 91.2394 262.56C91.0314 262.56 90.8687 262.589 90.7514 262.648ZM102.23 265H101.278V260.824L99.51 265H98.678L96.926 260.84V265H95.99V259.328H97.27L99.11 263.656L100.926 259.328H102.23V265ZM104.392 263.96C104.605 264.179 104.864 264.288 105.168 264.288C105.472 264.288 105.728 264.179 105.936 263.96C106.149 263.741 106.256 263.437 106.256 263.048C106.256 262.664 106.149 262.365 105.936 262.152C105.728 261.933 105.472 261.824 105.168 261.824C104.864 261.824 104.605 261.933 104.392 262.152C104.184 262.365 104.08 262.664 104.08 263.048C104.08 263.432 104.184 263.736 104.392 263.96ZM105.168 260.984C105.755 260.984 106.237 261.179 106.616 261.568C107 261.957 107.192 262.451 107.192 263.048C107.192 263.645 107 264.141 106.616 264.536C106.237 264.925 105.755 265.12 105.168 265.12C104.587 265.12 104.104 264.925 103.72 264.536C103.341 264.141 103.152 263.645 103.152 263.048C103.152 262.451 103.341 261.957 103.72 261.568C104.104 261.179 104.587 260.984 105.168 260.984ZM108.977 262.752V265H108.049V261.104H108.953V261.624C109.075 261.411 109.238 261.253 109.441 261.152C109.649 261.045 109.87 260.992 110.105 260.992C110.563 260.992 110.913 261.136 111.153 261.424C111.393 261.712 111.513 262.083 111.513 262.536V265H110.585V262.696C110.585 262.435 110.521 262.227 110.393 262.072C110.265 261.912 110.062 261.832 109.785 261.832C109.529 261.832 109.329 261.92 109.185 262.096C109.046 262.267 108.977 262.485 108.977 262.752ZM113.778 259.912V261.104H114.586V261.928H113.778V263.736C113.778 263.907 113.818 264.032 113.898 264.112C113.978 264.187 114.104 264.224 114.274 264.224C114.381 264.224 114.488 264.213 114.594 264.192V264.96C114.456 265.019 114.266 265.048 114.026 265.048C113.664 265.048 113.378 264.947 113.17 264.744C112.962 264.536 112.858 264.251 112.858 263.888V261.928H112.138V261.104H112.338C112.536 261.104 112.685 261.048 112.786 260.936C112.888 260.824 112.938 260.677 112.938 260.496V259.912H113.778ZM116.319 262.712V265H115.391V259.208H116.319V261.48C116.569 261.155 116.94 260.992 117.431 260.992C117.889 260.992 118.241 261.136 118.487 261.424C118.732 261.712 118.855 262.083 118.855 262.536V265H117.927V262.696C117.927 262.435 117.863 262.227 117.735 262.072C117.607 261.912 117.404 261.832 117.127 261.832C116.881 261.832 116.687 261.915 116.543 262.08C116.404 262.245 116.329 262.456 116.319 262.712ZM119.6 263.944L120.408 263.72C120.424 263.907 120.502 264.064 120.64 264.192C120.779 264.32 120.966 264.384 121.2 264.384C121.382 264.384 121.523 264.341 121.624 264.256C121.731 264.171 121.784 264.064 121.784 263.936C121.784 263.712 121.632 263.568 121.328 263.504L120.752 263.376C120.416 263.301 120.158 263.163 119.976 262.96C119.795 262.757 119.704 262.517 119.704 262.24C119.704 261.899 119.843 261.605 120.12 261.36C120.398 261.109 120.736 260.984 121.136 260.984C121.392 260.984 121.619 261.021 121.816 261.096C122.014 261.171 122.166 261.269 122.272 261.392C122.384 261.509 122.47 261.624 122.528 261.736C122.587 261.848 122.624 261.96 122.64 262.072L121.856 262.296C121.835 262.147 121.766 262.013 121.648 261.896C121.536 261.773 121.366 261.712 121.136 261.712C120.976 261.712 120.843 261.757 120.736 261.848C120.63 261.933 120.576 262.037 120.576 262.16C120.576 262.379 120.707 262.515 120.968 262.568L121.56 262.688C121.923 262.768 122.2 262.912 122.392 263.12C122.584 263.328 122.68 263.579 122.68 263.872C122.68 264.197 122.55 264.488 122.288 264.744C122.032 264.995 121.672 265.12 121.208 265.12C120.942 265.12 120.702 265.08 120.488 265C120.28 264.92 120.115 264.819 119.992 264.696C119.875 264.568 119.782 264.443 119.712 264.32C119.648 264.192 119.611 264.067 119.6 263.944Z" fill="#9199B1"/>
<circle cx="106.5" cy="224.5" r="17.5" fill="#9199B1"/>
<path d="M100.822 228.22V225.34L106.282 218.02H109.682V225.86H111.822V228.22H109.682V231H106.962V228.22H100.822ZM106.962 225.86V220.9L103.262 225.86H106.962Z" fill="white"/>
<path d="M452.507 72H451.507L448.707 67.704V72H447.747V66.328H448.971L451.547 70.352V66.328H452.507V72ZM454.377 69.624H456.289C456.278 69.3787 456.19 69.1733 456.025 69.008C455.865 68.8427 455.633 68.76 455.329 68.76C455.052 68.76 454.828 68.848 454.657 69.024C454.486 69.1947 454.393 69.3947 454.377 69.624ZM456.393 70.64L457.177 70.888C457.065 71.2453 456.854 71.5413 456.545 71.776C456.241 72.0053 455.865 72.12 455.417 72.12C454.862 72.12 454.39 71.9307 454.001 71.552C453.617 71.1733 453.425 70.6667 453.425 70.032C453.425 69.4347 453.612 68.944 453.985 68.56C454.364 68.176 454.809 67.984 455.321 67.984C455.918 67.984 456.385 68.168 456.721 68.536C457.057 68.8987 457.225 69.3893 457.225 70.008C457.225 70.1733 457.217 70.272 457.201 70.304H454.353C454.364 70.5973 454.47 70.84 454.673 71.032C454.881 71.224 455.129 71.32 455.417 71.32C455.918 71.32 456.244 71.0933 456.393 70.64ZM460.225 68.104H461.185L462.105 70.8L462.881 68.104H463.825L462.577 72H461.649L460.681 69.2L459.737 72H458.785L457.521 68.104H458.513L459.305 70.8L460.225 68.104Z" fill="#9199B1"/>
<circle cx="473" cy="69" r="6" fill="#D1D5E4"/>
<circle cx="473" cy="69" r="3" fill="white"/>
<path d="M456.194 179H455.242V174.824L453.474 179H452.642L450.89 174.84V179H449.954V173.328H451.234L453.074 177.656L454.89 173.328H456.194V179ZM458.356 179H457.436V175.104H458.356V179ZM457.468 174.16C457.351 174.043 457.292 173.901 457.292 173.736C457.292 173.571 457.351 173.429 457.468 173.312C457.585 173.189 457.727 173.128 457.892 173.128C458.063 173.128 458.207 173.187 458.324 173.304C458.441 173.421 458.5 173.565 458.5 173.736C458.5 173.901 458.441 174.043 458.324 174.16C458.207 174.277 458.063 174.336 457.892 174.336C457.727 174.336 457.585 174.277 457.468 174.16ZM460.137 177.04C460.137 177.413 460.233 177.715 460.425 177.944C460.617 178.168 460.87 178.28 461.185 178.28C461.489 178.28 461.737 178.165 461.929 177.936C462.121 177.707 462.217 177.405 462.217 177.032C462.217 176.664 462.124 176.371 461.937 176.152C461.75 175.933 461.502 175.824 461.193 175.824C460.884 175.824 460.63 175.936 460.433 176.16C460.236 176.379 460.137 176.672 460.137 177.04ZM463.113 173.208V178.288C463.113 178.549 463.126 178.787 463.153 179H462.265C462.238 178.851 462.225 178.683 462.225 178.496C462.129 178.672 461.98 178.816 461.777 178.928C461.574 179.04 461.342 179.096 461.081 179.096C460.526 179.096 460.076 178.901 459.729 178.512C459.382 178.123 459.209 177.632 459.209 177.04C459.209 176.469 459.382 175.987 459.729 175.592C460.081 175.197 460.526 175 461.065 175C461.374 175 461.622 175.056 461.809 175.168C462.001 175.28 462.134 175.411 462.209 175.56V173.208H463.113Z" fill="#9199B1"/>
<circle cx="473" cy="176" r="6" fill="#D1D5E4"/>
<circle cx="473" cy="176" r="3" fill="white"/>
<circle cx="22" cy="274" r="6" fill="#D1D5E4"/>
<circle cx="22" cy="274" r="3" fill="white"/>
<path d="M36.5073 277H35.5073L32.7073 272.704V277H31.7473V271.328H32.9713L35.5473 275.352V271.328H36.5073V277ZM38.3769 274.624H40.2889C40.2782 274.379 40.1902 274.173 40.0249 274.008C39.8649 273.843 39.6329 273.76 39.3289 273.76C39.0516 273.76 38.8276 273.848 38.6569 274.024C38.4862 274.195 38.3929 274.395 38.3769 274.624ZM40.3929 275.64L41.1769 275.888C41.0649 276.245 40.8542 276.541 40.5449 276.776C40.2409 277.005 39.8649 277.12 39.4169 277.12C38.8622 277.12 38.3902 276.931 38.0009 276.552C37.6169 276.173 37.4249 275.667 37.4249 275.032C37.4249 274.435 37.6116 273.944 37.9849 273.56C38.3636 273.176 38.8089 272.984 39.3209 272.984C39.9182 272.984 40.3849 273.168 40.7209 273.536C41.0569 273.899 41.2249 274.389 41.2249 275.008C41.2249 275.173 41.2169 275.272 41.2009 275.304H38.3529C38.3636 275.597 38.4702 275.84 38.6729 276.032C38.8809 276.224 39.1289 276.32 39.4169 276.32C39.9182 276.32 40.2436 276.093 40.3929 275.64ZM44.225 273.104H45.185L46.105 275.8L46.881 273.104H47.825L46.577 277H45.649L44.681 274.2L43.737 277H42.785L41.521 273.104H42.513L43.305 275.8L44.225 273.104Z" fill="#9199B1"/>
<circle cx="24" cy="381" r="6" fill="#D1D5E4"/>
<circle cx="24" cy="381" r="3" fill="white"/>
<path d="M40.1944 384H39.2424V379.824L37.4744 384H36.6424L34.8904 379.84V384H33.9544V378.328H35.2344L37.0744 382.656L38.8904 378.328H40.1944V384ZM42.3559 384H41.4359V380.104H42.3559V384ZM41.4679 379.16C41.3506 379.043 41.2919 378.901 41.2919 378.736C41.2919 378.571 41.3506 378.429 41.4679 378.312C41.5853 378.189 41.7266 378.128 41.8919 378.128C42.0626 378.128 42.2066 378.187 42.3239 378.304C42.4413 378.421 42.4999 378.565 42.4999 378.736C42.4999 378.901 42.4413 379.043 42.3239 379.16C42.2066 379.277 42.0626 379.336 41.8919 379.336C41.7266 379.336 41.5853 379.277 41.4679 379.16ZM44.1371 382.04C44.1371 382.413 44.2331 382.715 44.4251 382.944C44.6171 383.168 44.8705 383.28 45.1851 383.28C45.4891 383.28 45.7371 383.165 45.9291 382.936C46.1211 382.707 46.2171 382.405 46.2171 382.032C46.2171 381.664 46.1238 381.371 45.9371 381.152C45.7505 380.933 45.5025 380.824 45.1931 380.824C44.8838 380.824 44.6305 380.936 44.4331 381.16C44.2358 381.379 44.1371 381.672 44.1371 382.04ZM47.1131 378.208V383.288C47.1131 383.549 47.1265 383.787 47.1531 384H46.2651C46.2385 383.851 46.2251 383.683 46.2251 383.496C46.1291 383.672 45.9798 383.816 45.7771 383.928C45.5745 384.04 45.3425 384.096 45.0811 384.096C44.5265 384.096 44.0758 383.901 43.7291 383.512C43.3825 383.123 43.2091 382.632 43.2091 382.04C43.2091 381.469 43.3825 380.987 43.7291 380.592C44.0811 380.197 44.5265 380 45.0651 380C45.3745 380 45.6225 380.056 45.8091 380.168C46.0011 380.28 46.1345 380.411 46.2091 380.56V378.208H47.1131Z" fill="#9199B1"/>
<circle cx="199.5" cy="225" r="6" fill="#D1D5E4"/>
<circle cx="199.5" cy="225" r="3" fill="white"/>
<path d="M196.507 242H195.507L192.707 237.704V242H191.747V236.328H192.971L195.547 240.352V236.328H196.507V242ZM198.377 239.624H200.289C200.278 239.379 200.19 239.173 200.025 239.008C199.865 238.843 199.633 238.76 199.329 238.76C199.052 238.76 198.828 238.848 198.657 239.024C198.486 239.195 198.393 239.395 198.377 239.624ZM200.393 240.64L201.177 240.888C201.065 241.245 200.854 241.541 200.545 241.776C200.241 242.005 199.865 242.12 199.417 242.12C198.862 242.12 198.39 241.931 198.001 241.552C197.617 241.173 197.425 240.667 197.425 240.032C197.425 239.435 197.612 238.944 197.985 238.56C198.364 238.176 198.809 237.984 199.321 237.984C199.918 237.984 200.385 238.168 200.721 238.536C201.057 238.899 201.225 239.389 201.225 240.008C201.225 240.173 201.217 240.272 201.201 240.304H198.353C198.364 240.597 198.47 240.84 198.673 241.032C198.881 241.224 199.129 241.32 199.417 241.32C199.918 241.32 200.244 241.093 200.393 240.64ZM204.225 238.104H205.185L206.105 240.8L206.881 238.104H207.825L206.577 242H205.649L204.681 239.2L203.737 242H202.785L201.521 238.104H202.513L203.305 240.8L204.225 238.104Z" fill="#9199B1"/>
<circle cx="199.5" cy="430" r="6" fill="#D1D5E4"/>
<circle cx="199.5" cy="430" r="3" fill="white"/>
<path d="M196.507 447H195.507L192.707 442.704V447H191.747V441.328H192.971L195.547 445.352V441.328H196.507V447ZM198.377 444.624H200.289C200.278 444.379 200.19 444.173 200.025 444.008C199.865 443.843 199.633 443.76 199.329 443.76C199.052 443.76 198.828 443.848 198.657 444.024C198.486 444.195 198.393 444.395 198.377 444.624ZM200.393 445.64L201.177 445.888C201.065 446.245 200.854 446.541 200.545 446.776C200.241 447.005 199.865 447.12 199.417 447.12C198.862 447.12 198.39 446.931 198.001 446.552C197.617 446.173 197.425 445.667 197.425 445.032C197.425 444.435 197.612 443.944 197.985 443.56C198.364 443.176 198.809 442.984 199.321 442.984C199.918 442.984 200.385 443.168 200.721 443.536C201.057 443.899 201.225 444.389 201.225 445.008C201.225 445.173 201.217 445.272 201.201 445.304H198.353C198.364 445.597 198.47 445.84 198.673 446.032C198.881 446.224 199.129 446.32 199.417 446.32C199.918 446.32 200.244 446.093 200.393 445.64ZM204.225 443.104H205.185L206.105 445.8L206.881 443.104H207.825L206.577 447H205.649L204.681 444.2L203.737 447H202.785L201.521 443.104H202.513L203.305 445.8L204.225 443.104Z" fill="#9199B1"/>
<circle cx="279.5" cy="225" r="6" fill="#D1D5E4"/>
<circle cx="279.5" cy="225" r="3" fill="white"/>
<path d="M279.194 242H278.242V237.824L276.474 242H275.642L273.89 237.84V242H272.954V236.328H274.234L276.074 240.656L277.89 236.328H279.194V242ZM281.356 242H280.436V238.104H281.356V242ZM280.468 237.16C280.351 237.043 280.292 236.901 280.292 236.736C280.292 236.571 280.351 236.429 280.468 236.312C280.585 236.189 280.727 236.128 280.892 236.128C281.063 236.128 281.207 236.187 281.324 236.304C281.441 236.421 281.5 236.565 281.5 236.736C281.5 236.901 281.441 237.043 281.324 237.16C281.207 237.277 281.063 237.336 280.892 237.336C280.727 237.336 280.585 237.277 280.468 237.16ZM283.137 240.04C283.137 240.413 283.233 240.715 283.425 240.944C283.617 241.168 283.87 241.28 284.185 241.28C284.489 241.28 284.737 241.165 284.929 240.936C285.121 240.707 285.217 240.405 285.217 240.032C285.217 239.664 285.124 239.371 284.937 239.152C284.75 238.933 284.502 238.824 284.193 238.824C283.884 238.824 283.63 238.936 283.433 239.16C283.236 239.379 283.137 239.672 283.137 240.04ZM286.113 236.208V241.288C286.113 241.549 286.126 241.787 286.153 242H285.265C285.238 241.851 285.225 241.683 285.225 241.496C285.129 241.672 284.98 241.816 284.777 241.928C284.574 242.04 284.342 242.096 284.081 242.096C283.526 242.096 283.076 241.901 282.729 241.512C282.382 241.123 282.209 240.632 282.209 240.04C282.209 239.469 282.382 238.987 282.729 238.592C283.081 238.197 283.526 238 284.065 238C284.374 238 284.622 238.056 284.809 238.168C285.001 238.28 285.134 238.411 285.209 238.56V236.208H286.113Z" fill="#9199B1"/>
<circle cx="279.5" cy="20" r="6" fill="#D1D5E4"/>
<circle cx="279.5" cy="20" r="3" fill="white"/>
<path d="M279.194 37H278.242V32.824L276.474 37H275.642L273.89 32.84V37H272.954V31.328H274.234L276.074 35.656L277.89 31.328H279.194V37ZM281.356 37H280.436V33.104H281.356V37ZM280.468 32.16C280.351 32.0427 280.292 31.9013 280.292 31.736C280.292 31.5707 280.351 31.4293 280.468 31.312C280.585 31.1893 280.727 31.128 280.892 31.128C281.063 31.128 281.207 31.1867 281.324 31.304C281.441 31.4213 281.5 31.5653 281.5 31.736C281.5 31.9013 281.441 32.0427 281.324 32.16C281.207 32.2773 281.063 32.336 280.892 32.336C280.727 32.336 280.585 32.2773 280.468 32.16ZM283.137 35.04C283.137 35.4133 283.233 35.7147 283.425 35.944C283.617 36.168 283.87 36.28 284.185 36.28C284.489 36.28 284.737 36.1653 284.929 35.936C285.121 35.7067 285.217 35.4053 285.217 35.032C285.217 34.664 285.124 34.3707 284.937 34.152C284.75 33.9333 284.502 33.824 284.193 33.824C283.884 33.824 283.63 33.936 283.433 34.16C283.236 34.3787 283.137 34.672 283.137 35.04ZM286.113 31.208V36.288C286.113 36.5493 286.126 36.7867 286.153 37H285.265C285.238 36.8507 285.225 36.6827 285.225 36.496C285.129 36.672 284.98 36.816 284.777 36.928C284.574 37.04 284.342 37.096 284.081 37.096C283.526 37.096 283.076 36.9013 282.729 36.512C282.382 36.1227 282.209 35.632 282.209 35.04C282.209 34.4693 282.382 33.9867 282.729 33.592C283.081 33.1973 283.526 33 284.065 33C284.374 33 284.622 33.056 284.809 33.168C285.001 33.28 285.134 33.4107 285.209 33.56V31.208H286.113Z" fill="#9199B1"/>
<circle cx="279.5" cy="430" r="6" fill="#D1D5E4"/>
<circle cx="279.5" cy="430" r="3" fill="white"/>
<path d="M279.194 447H278.242V442.824L276.474 447H275.642L273.89 442.84V447H272.954V441.328H274.234L276.074 445.656L277.89 441.328H279.194V447ZM281.356 447H280.436V443.104H281.356V447ZM280.468 442.16C280.351 442.043 280.292 441.901 280.292 441.736C280.292 441.571 280.351 441.429 280.468 441.312C280.585 441.189 280.727 441.128 280.892 441.128C281.063 441.128 281.207 441.187 281.324 441.304C281.441 441.421 281.5 441.565 281.5 441.736C281.5 441.901 281.441 442.043 281.324 442.16C281.207 442.277 281.063 442.336 280.892 442.336C280.727 442.336 280.585 442.277 280.468 442.16ZM283.137 445.04C283.137 445.413 283.233 445.715 283.425 445.944C283.617 446.168 283.87 446.28 284.185 446.28C284.489 446.28 284.737 446.165 284.929 445.936C285.121 445.707 285.217 445.405 285.217 445.032C285.217 444.664 285.124 444.371 284.937 444.152C284.75 443.933 284.502 443.824 284.193 443.824C283.884 443.824 283.63 443.936 283.433 444.16C283.236 444.379 283.137 444.672 283.137 445.04ZM286.113 441.208V446.288C286.113 446.549 286.126 446.787 286.153 447H285.265C285.238 446.851 285.225 446.683 285.225 446.496C285.129 446.672 284.98 446.816 284.777 446.928C284.574 447.04 284.342 447.096 284.081 447.096C283.526 447.096 283.076 446.901 282.729 446.512C282.382 446.123 282.209 445.632 282.209 445.04C282.209 444.469 282.382 443.987 282.729 443.592C283.081 443.197 283.526 443 284.065 443C284.374 443 284.622 443.056 284.809 443.168C285.001 443.28 285.134 443.411 285.209 443.56V441.208H286.113Z" fill="#9199B1"/>
<path d="M92.4293 459H91.4533V453.328H92.4293V459ZM97.2532 459H93.7492V453.328H97.2532V454.224H94.7092V455.728H97.0132V456.6H94.7092V458.104H97.2532V459ZM101.925 459H98.3655V453.328H99.3255V458.088H101.925V459ZM106.272 454.232H104.424V459H103.464V454.232H101.624V453.328H106.272V454.232ZM110.748 454.656L109.884 454.928C109.847 454.709 109.737 454.509 109.556 454.328C109.375 454.147 109.113 454.056 108.772 454.056C108.489 454.056 108.255 454.136 108.068 454.296C107.887 454.456 107.796 454.648 107.796 454.872C107.796 455.261 108.017 455.504 108.46 455.6L109.276 455.768C109.767 455.864 110.145 456.059 110.412 456.352C110.679 456.645 110.812 456.995 110.812 457.4C110.812 457.869 110.631 458.275 110.268 458.616C109.911 458.952 109.423 459.12 108.804 459.12C108.137 459.12 107.617 458.947 107.244 458.6C106.871 458.248 106.66 457.84 106.612 457.376L107.508 457.12C107.54 457.44 107.668 457.709 107.892 457.928C108.116 458.147 108.42 458.256 108.804 458.256C109.135 458.256 109.388 458.184 109.564 458.04C109.745 457.891 109.836 457.701 109.836 457.472C109.836 457.285 109.769 457.125 109.636 456.992C109.503 456.853 109.316 456.757 109.076 456.704L108.276 456.536C107.833 456.445 107.481 456.261 107.22 455.984C106.964 455.707 106.836 455.36 106.836 454.944C106.836 454.469 107.025 454.061 107.404 453.72C107.783 453.379 108.236 453.208 108.764 453.208C109.367 453.208 109.828 453.355 110.148 453.648C110.468 453.936 110.668 454.272 110.748 454.656ZM117.273 459H113.713V453.328H114.673V458.088H117.273V459ZM118.229 458.864C118.106 458.736 118.045 458.581 118.045 458.4C118.045 458.219 118.106 458.064 118.229 457.936C118.357 457.808 118.512 457.744 118.693 457.744C118.874 457.744 119.029 457.808 119.157 457.936C119.285 458.064 119.349 458.219 119.349 458.4C119.349 458.581 119.285 458.736 119.157 458.864C119.029 458.987 118.874 459.048 118.693 459.048C118.512 459.048 118.357 458.987 118.229 458.864ZM121.643 459H120.699V455.448H119.443V454.792C119.806 454.787 120.11 454.693 120.355 454.512C120.6 454.325 120.752 454.093 120.811 453.816H121.643V459Z" fill="#050A41"/>
<path d="M91.2514 466.648L90.8114 465.936L92.2434 464.656H89.8834V463.816H93.4834V464.616L92.0754 465.848C92.4914 465.859 92.854 466.005 93.1634 466.288C93.4727 466.571 93.6274 466.949 93.6274 467.424C93.6274 467.893 93.4514 468.293 93.0994 468.624C92.7474 468.955 92.2754 469.12 91.6834 469.12C91.1074 469.12 90.6407 468.963 90.2834 468.648C89.9314 468.328 89.7394 467.939 89.7074 467.48L90.6434 467.288C90.654 467.587 90.7554 467.829 90.9474 468.016C91.1447 468.203 91.3874 468.296 91.6754 468.296C91.9794 468.296 92.2194 468.211 92.3954 468.04C92.5714 467.869 92.6594 467.661 92.6594 467.416C92.6594 467.139 92.566 466.928 92.3794 466.784C92.198 466.635 91.9847 466.56 91.7394 466.56C91.5314 466.56 91.3687 466.589 91.2514 466.648ZM102.73 469H101.778V464.824L100.01 469H99.178L97.426 464.84V469H96.49V463.328H97.77L99.61 467.656L101.426 463.328H102.73V469ZM104.892 467.96C105.105 468.179 105.364 468.288 105.668 468.288C105.972 468.288 106.228 468.179 106.436 467.96C106.649 467.741 106.756 467.437 106.756 467.048C106.756 466.664 106.649 466.365 106.436 466.152C106.228 465.933 105.972 465.824 105.668 465.824C105.364 465.824 105.105 465.933 104.892 466.152C104.684 466.365 104.58 466.664 104.58 467.048C104.58 467.432 104.684 467.736 104.892 467.96ZM105.668 464.984C106.255 464.984 106.737 465.179 107.116 465.568C107.5 465.957 107.692 466.451 107.692 467.048C107.692 467.645 107.5 468.141 107.116 468.536C106.737 468.925 106.255 469.12 105.668 469.12C105.087 469.12 104.604 468.925 104.22 468.536C103.841 468.141 103.652 467.645 103.652 467.048C103.652 466.451 103.841 465.957 104.22 465.568C104.604 465.179 105.087 464.984 105.668 464.984ZM109.477 466.752V469H108.549V465.104H109.453V465.624C109.575 465.411 109.738 465.253 109.941 465.152C110.149 465.045 110.37 464.992 110.605 464.992C111.063 464.992 111.413 465.136 111.653 465.424C111.893 465.712 112.013 466.083 112.013 466.536V469H111.085V466.696C111.085 466.435 111.021 466.227 110.893 466.072C110.765 465.912 110.562 465.832 110.285 465.832C110.029 465.832 109.829 465.92 109.685 466.096C109.546 466.267 109.477 466.485 109.477 466.752ZM114.278 463.912V465.104H115.086V465.928H114.278V467.736C114.278 467.907 114.318 468.032 114.398 468.112C114.478 468.187 114.604 468.224 114.774 468.224C114.881 468.224 114.988 468.213 115.094 468.192V468.96C114.956 469.019 114.766 469.048 114.526 469.048C114.164 469.048 113.878 468.947 113.67 468.744C113.462 468.536 113.358 468.251 113.358 467.888V465.928H112.638V465.104H112.838C113.036 465.104 113.185 465.048 113.286 464.936C113.388 464.824 113.438 464.677 113.438 464.496V463.912H114.278ZM116.819 466.712V469H115.891V463.208H116.819V465.48C117.069 465.155 117.44 464.992 117.931 464.992C118.389 464.992 118.741 465.136 118.987 465.424C119.232 465.712 119.355 466.083 119.355 466.536V469H118.427V466.696C118.427 466.435 118.363 466.227 118.235 466.072C118.107 465.912 117.904 465.832 117.627 465.832C117.381 465.832 117.187 465.915 117.043 466.08C116.904 466.245 116.829 466.456 116.819 466.712ZM120.1 467.944L120.908 467.72C120.924 467.907 121.002 468.064 121.14 468.192C121.279 468.32 121.466 468.384 121.7 468.384C121.882 468.384 122.023 468.341 122.124 468.256C122.231 468.171 122.284 468.064 122.284 467.936C122.284 467.712 122.132 467.568 121.828 467.504L121.252 467.376C120.916 467.301 120.658 467.163 120.476 466.96C120.295 466.757 120.204 466.517 120.204 466.24C120.204 465.899 120.343 465.605 120.62 465.36C120.898 465.109 121.236 464.984 121.636 464.984C121.892 464.984 122.119 465.021 122.316 465.096C122.514 465.171 122.666 465.269 122.772 465.392C122.884 465.509 122.97 465.624 123.028 465.736C123.087 465.848 123.124 465.96 123.14 466.072L122.356 466.296C122.335 466.147 122.266 466.013 122.148 465.896C122.036 465.773 121.866 465.712 121.636 465.712C121.476 465.712 121.343 465.757 121.236 465.848C121.13 465.933 121.076 466.037 121.076 466.16C121.076 466.379 121.207 466.515 121.468 466.568L122.06 466.688C122.423 466.768 122.7 466.912 122.892 467.12C123.084 467.328 123.18 467.579 123.18 467.872C123.18 468.197 123.05 468.488 122.788 468.744C122.532 468.995 122.172 469.12 121.708 469.12C121.442 469.12 121.202 469.08 120.988 469C120.78 468.92 120.615 468.819 120.492 468.696C120.375 468.568 120.282 468.443 120.212 468.32C120.148 468.192 120.111 468.067 120.1 467.944Z" fill="#9199B1"/>
<circle cx="106.5" cy="428.5" r="17.5" fill="#9199B1"/>
<path d="M101.762 432.36L104.342 431.78C104.368 432.393 104.595 432.913 105.022 433.34C105.462 433.753 106.022 433.96 106.702 433.96C107.342 433.96 107.875 433.767 108.302 433.38C108.728 432.993 108.942 432.48 108.942 431.84C108.942 431.133 108.715 430.593 108.262 430.22C107.822 429.847 107.282 429.66 106.642 429.66C105.828 429.66 105.162 429.953 104.642 430.54C103.695 430.18 102.855 429.893 102.122 429.68L103.662 423.02H110.982V425.4H105.542L104.902 428.26C105.475 427.727 106.255 427.46 107.242 427.46C108.575 427.46 109.648 427.847 110.462 428.62C111.275 429.38 111.682 430.44 111.682 431.8C111.682 433.053 111.228 434.12 110.322 435C109.415 435.88 108.208 436.32 106.702 436.32C105.342 436.32 104.195 435.927 103.262 435.14C102.342 434.353 101.842 433.427 101.762 432.36Z" fill="white"/>
<path d="M362.476 459H361.5V453.328H362.476V459ZM367.3 459H363.796V453.328H367.3V454.224H364.756V455.728H367.06V456.6H364.756V458.104H367.3V459ZM371.972 459H368.412V453.328H369.372V458.088H371.972V459ZM376.319 454.232H374.471V459H373.511V454.232H371.671V453.328H376.319V454.232ZM380.795 454.656L379.931 454.928C379.893 454.709 379.784 454.509 379.603 454.328C379.421 454.147 379.16 454.056 378.819 454.056C378.536 454.056 378.301 454.136 378.115 454.296C377.933 454.456 377.843 454.648 377.843 454.872C377.843 455.261 378.064 455.504 378.507 455.6L379.323 455.768C379.813 455.864 380.192 456.059 380.459 456.352C380.725 456.645 380.859 456.995 380.859 457.4C380.859 457.869 380.677 458.275 380.315 458.616C379.957 458.952 379.469 459.12 378.851 459.12C378.184 459.12 377.664 458.947 377.291 458.6C376.917 458.248 376.707 457.84 376.659 457.376L377.555 457.12C377.587 457.44 377.715 457.709 377.939 457.928C378.163 458.147 378.467 458.256 378.851 458.256C379.181 458.256 379.435 458.184 379.611 458.04C379.792 457.891 379.883 457.701 379.883 457.472C379.883 457.285 379.816 457.125 379.683 456.992C379.549 456.853 379.363 456.757 379.123 456.704L378.323 456.536C377.88 456.445 377.528 456.261 377.267 455.984C377.011 455.707 376.883 455.36 376.883 454.944C376.883 454.469 377.072 454.061 377.451 453.72C377.829 453.379 378.283 453.208 378.811 453.208C379.413 453.208 379.875 453.355 380.195 453.648C380.515 453.936 380.715 454.272 380.795 454.656ZM387.32 459H383.76V453.328H384.72V458.088H387.32V459ZM388.276 458.864C388.153 458.736 388.092 458.581 388.092 458.4C388.092 458.219 388.153 458.064 388.276 457.936C388.404 457.808 388.558 457.744 388.74 457.744C388.921 457.744 389.076 457.808 389.204 457.936C389.332 458.064 389.396 458.219 389.396 458.4C389.396 458.581 389.332 458.736 389.204 458.864C389.076 458.987 388.921 459.048 388.74 459.048C388.558 459.048 388.404 458.987 388.276 458.864ZM391.147 455.76L390.219 455.696C390.203 455.552 390.195 455.453 390.195 455.4C390.195 454.931 390.36 454.531 390.691 454.2C391.027 453.864 391.478 453.696 392.043 453.696C392.598 453.696 393.04 453.853 393.371 454.168C393.702 454.483 393.867 454.869 393.867 455.328C393.867 455.989 393.534 456.525 392.867 456.936L391.859 457.56C391.566 457.736 391.39 457.933 391.331 458.152H393.899V459H390.147C390.158 458.536 390.256 458.131 390.443 457.784C390.63 457.437 390.942 457.128 391.379 456.856L392.235 456.32C392.678 456.043 392.899 455.717 392.899 455.344C392.899 455.115 392.822 454.923 392.667 454.768C392.518 454.613 392.304 454.536 392.027 454.536C391.734 454.536 391.51 454.627 391.355 454.808C391.2 454.984 391.123 455.213 391.123 455.496L391.147 455.76Z" fill="#050A41"/>
<path d="M362.251 466.648L361.811 465.936L363.243 464.656H360.883V463.816H364.483V464.616L363.075 465.848C363.491 465.859 363.854 466.005 364.163 466.288C364.473 466.571 364.627 466.949 364.627 467.424C364.627 467.893 364.451 468.293 364.099 468.624C363.747 468.955 363.275 469.12 362.683 469.12C362.107 469.12 361.641 468.963 361.283 468.648C360.931 468.328 360.739 467.939 360.707 467.48L361.643 467.288C361.654 467.587 361.755 467.829 361.947 468.016C362.145 468.203 362.387 468.296 362.675 468.296C362.979 468.296 363.219 468.211 363.395 468.04C363.571 467.869 363.659 467.661 363.659 467.416C363.659 467.139 363.566 466.928 363.379 466.784C363.198 466.635 362.985 466.56 362.739 466.56C362.531 466.56 362.369 466.589 362.251 466.648ZM373.73 469H372.778V464.824L371.01 469H370.178L368.426 464.84V469H367.49V463.328H368.77L370.61 467.656L372.426 463.328H373.73V469ZM375.892 467.96C376.105 468.179 376.364 468.288 376.668 468.288C376.972 468.288 377.228 468.179 377.436 467.96C377.649 467.741 377.756 467.437 377.756 467.048C377.756 466.664 377.649 466.365 377.436 466.152C377.228 465.933 376.972 465.824 376.668 465.824C376.364 465.824 376.105 465.933 375.892 466.152C375.684 466.365 375.58 466.664 375.58 467.048C375.58 467.432 375.684 467.736 375.892 467.96ZM376.668 464.984C377.255 464.984 377.737 465.179 378.116 465.568C378.5 465.957 378.692 466.451 378.692 467.048C378.692 467.645 378.5 468.141 378.116 468.536C377.737 468.925 377.255 469.12 376.668 469.12C376.087 469.12 375.604 468.925 375.22 468.536C374.841 468.141 374.652 467.645 374.652 467.048C374.652 466.451 374.841 465.957 375.22 465.568C375.604 465.179 376.087 464.984 376.668 464.984ZM380.477 466.752V469H379.549V465.104H380.453V465.624C380.575 465.411 380.738 465.253 380.941 465.152C381.149 465.045 381.37 464.992 381.605 464.992C382.063 464.992 382.413 465.136 382.653 465.424C382.893 465.712 383.013 466.083 383.013 466.536V469H382.085V466.696C382.085 466.435 382.021 466.227 381.893 466.072C381.765 465.912 381.562 465.832 381.285 465.832C381.029 465.832 380.829 465.92 380.685 466.096C380.546 466.267 380.477 466.485 380.477 466.752ZM385.278 463.912V465.104H386.086V465.928H385.278V467.736C385.278 467.907 385.318 468.032 385.398 468.112C385.478 468.187 385.604 468.224 385.774 468.224C385.881 468.224 385.988 468.213 386.094 468.192V468.96C385.956 469.019 385.766 469.048 385.526 469.048C385.164 469.048 384.878 468.947 384.67 468.744C384.462 468.536 384.358 468.251 384.358 467.888V465.928H383.638V465.104H383.838C384.036 465.104 384.185 465.048 384.286 464.936C384.388 464.824 384.438 464.677 384.438 464.496V463.912H385.278ZM387.819 466.712V469H386.891V463.208H387.819V465.48C388.069 465.155 388.44 464.992 388.931 464.992C389.389 464.992 389.741 465.136 389.987 465.424C390.232 465.712 390.355 466.083 390.355 466.536V469H389.427V466.696C389.427 466.435 389.363 466.227 389.235 466.072C389.107 465.912 388.904 465.832 388.627 465.832C388.381 465.832 388.187 465.915 388.043 466.08C387.904 466.245 387.829 466.456 387.819 466.712ZM391.1 467.944L391.908 467.72C391.924 467.907 392.002 468.064 392.14 468.192C392.279 468.32 392.466 468.384 392.7 468.384C392.882 468.384 393.023 468.341 393.124 468.256C393.231 468.171 393.284 468.064 393.284 467.936C393.284 467.712 393.132 467.568 392.828 467.504L392.252 467.376C391.916 467.301 391.658 467.163 391.476 466.96C391.295 466.757 391.204 466.517 391.204 466.24C391.204 465.899 391.343 465.605 391.62 465.36C391.898 465.109 392.236 464.984 392.636 464.984C392.892 464.984 393.119 465.021 393.316 465.096C393.514 465.171 393.666 465.269 393.772 465.392C393.884 465.509 393.97 465.624 394.028 465.736C394.087 465.848 394.124 465.96 394.14 466.072L393.356 466.296C393.335 466.147 393.266 466.013 393.148 465.896C393.036 465.773 392.866 465.712 392.636 465.712C392.476 465.712 392.343 465.757 392.236 465.848C392.13 465.933 392.076 466.037 392.076 466.16C392.076 466.379 392.207 466.515 392.468 466.568L393.06 466.688C393.423 466.768 393.7 466.912 393.892 467.12C394.084 467.328 394.18 467.579 394.18 467.872C394.18 468.197 394.05 468.488 393.788 468.744C393.532 468.995 393.172 469.12 392.708 469.12C392.442 469.12 392.202 469.08 391.988 469C391.78 468.92 391.615 468.819 391.492 468.696C391.375 468.568 391.282 468.443 391.212 468.32C391.148 468.192 391.111 468.067 391.1 467.944Z" fill="#9199B1"/>
<circle cx="377.5" cy="428.5" r="17.5" fill="#9199B1"/>
<path d="M381.942 422.32L381.182 424.56C380.462 424.253 379.748 424.1 379.042 424.1C377.908 424.1 376.942 424.427 376.142 425.08C375.355 425.72 374.888 426.633 374.742 427.82C375.008 427.42 375.408 427.08 375.942 426.8C376.488 426.52 377.115 426.38 377.822 426.38C379.168 426.38 380.248 426.773 381.062 427.56C381.888 428.347 382.302 429.407 382.302 430.74C382.302 432.06 381.822 433.153 380.862 434.02C379.915 434.873 378.722 435.3 377.282 435.3C375.788 435.3 374.535 434.78 373.522 433.74C372.522 432.687 372.022 431.22 372.022 429.34C372.022 427.02 372.682 425.173 374.002 423.8C375.322 422.413 377.062 421.72 379.222 421.72C380.355 421.72 381.262 421.92 381.942 422.32ZM374.982 430.8C374.982 431.44 375.202 431.967 375.642 432.38C376.095 432.78 376.635 432.98 377.262 432.98C377.915 432.98 378.462 432.78 378.902 432.38C379.342 431.98 379.562 431.453 379.562 430.8C379.562 430.147 379.342 429.627 378.902 429.24C378.462 428.84 377.915 428.64 377.262 428.64C376.622 428.64 376.082 428.84 375.642 429.24C375.202 429.627 374.982 430.147 374.982 430.8Z" fill="white"/>
<circle cx="199.5" cy="19.5" r="17.5" fill="#0D99FF"/>
<path d="M199.502 10.6401C197.674 10.6401 195.922 11.3661 194.629 12.6584C193.337 13.9506 192.611 15.7033 192.611 17.5308C192.611 23.1089 199.502 28.3589 199.502 28.3589C199.502 28.3589 206.392 23.1089 206.392 17.5308C206.392 15.7033 205.666 13.9506 204.374 12.6584C203.082 11.3661 201.329 10.6401 199.502 10.6401ZM199.502 20.812C198.853 20.812 198.218 20.6196 197.679 20.259C197.139 19.8985 196.719 19.386 196.47 18.7864C196.222 18.1869 196.157 17.5271 196.284 16.8906C196.41 16.2541 196.723 15.6695 197.182 15.2106C197.64 14.7517 198.225 14.4392 198.862 14.3126C199.498 14.186 200.158 14.2509 200.757 14.4993C201.357 14.7476 201.869 15.1682 202.23 15.7078C202.591 16.2474 202.783 16.8818 202.783 17.5308C202.783 18.401 202.437 19.2356 201.822 19.851C201.207 20.4663 200.372 20.812 199.502 20.812Z" fill="white"/>
</svg>
